<svg xmlns="http://www.w3.org/2000/svg" xmlns:xlink="http://www.w3.org/1999/xlink" width="100" zoomAndPan="magnify" viewBox="0 0 75 74.999997" height="100" preserveAspectRatio="xMidYMid meet" version="1.0"><defs><clipPath id="1a43d24f1c"><path d="M 38 49 L 46 49 L 46 59.699219 L 38 59.699219 Z M 38 49 " clip-rule="nonzero"/></clipPath><clipPath id="df9337bfed"><path d="M 38 49 L 46 49 L 46 59.699219 L 38 59.699219 Z M 38 49 " clip-rule="nonzero"/></clipPath><clipPath id="41a711abdd"><path d="M 35 49 L 45 49 L 45 59.699219 L 35 59.699219 Z M 35 49 " clip-rule="nonzero"/></clipPath><clipPath id="3418b6674a"><path d="M 36 49 L 45 49 L 45 59.699219 L 36 59.699219 Z M 36 49 " clip-rule="nonzero"/></clipPath><clipPath id="701e96356e"><path d="M 35 49 L 45 49 L 45 59.699219 L 35 59.699219 Z M 35 49 " clip-rule="nonzero"/></clipPath><clipPath id="2dc800a0ec"><path d="M 14.277344 39 L 42 39 L 42 52 L 14.277344 52 Z M 14.277344 39 " clip-rule="nonzero"/></clipPath><clipPath id="7fd1ae7a0c"><path d="M 14.277344 39 L 24 39 L 24 47 L 14.277344 47 Z M 14.277344 39 " clip-rule="nonzero"/></clipPath><clipPath id="834dc12e61"><path d="M 14.277344 39 L 40 39 L 40 52 L 14.277344 52 Z M 14.277344 39 " clip-rule="nonzero"/></clipPath><clipPath id="85224802fa"><path d="M 47 9.449219 L 60.777344 9.449219 L 60.777344 40 L 47 40 Z M 47 9.449219 " clip-rule="nonzero"/></clipPath><clipPath id="642d05bffa"><path d="M 48 9.449219 L 60.777344 9.449219 L 60.777344 40 L 48 40 Z M 48 9.449219 " clip-rule="nonzero"/></clipPath><clipPath id="426b00c456"><path d="M 47 9.449219 L 60.777344 9.449219 L 60.777344 40 L 47 40 Z M 47 9.449219 " clip-rule="nonzero"/></clipPath></defs><g clip-path="url(#1a43d24f1c)"><path fill="#68bbe3" d="M 45.789062 49.046875 C 45.066406 51.601562 43.632812 55.953125 42.789062 57.277344 C 42.441406 57.828125 41.886719 58.289062 41.265625 58.636719 C 40.390625 59.121094 39.375 59.367188 38.625 59.273438 L 43.40625 50.519531 L 43.785156 49.820312 Z M 45.789062 49.046875 " fill-opacity="1" fill-rule="nonzero"/></g><path fill="#319ac4" d="M 45.789062 49.046875 C 45.066406 51.601562 43.632812 55.953125 42.789062 57.277344 C 42.441406 57.828125 41.886719 58.289062 41.265625 58.636719 C 42.773438 57.214844 43.628906 54.375 42.6875 53.074219 L 43.410156 50.519531 L 43.789062 49.820312 Z M 45.789062 49.046875 " fill-opacity="1" fill-rule="nonzero"/><g clip-path="url(#df9337bfed)"><path fill="#000000" d="M 42.746094 57.253906 C 41.90625 58.574219 39.886719 59.382812 38.632812 59.222656 L 38.621094 59.320312 C 38.730469 59.332031 38.847656 59.339844 38.96875 59.339844 C 39.546875 59.339844 40.230469 59.175781 40.894531 58.878906 C 41.746094 58.492188 42.433594 57.933594 42.832031 57.304688 C 43.660156 55.992188 45.089844 51.6875 45.835938 49.058594 L 45.746094 49.035156 C 45 51.660156 43.574219 55.953125 42.746094 57.253906 Z M 42.746094 57.253906 " fill-opacity="1" fill-rule="nonzero"/></g><g clip-path="url(#41a711abdd)"><path fill="#68bbe3" d="M 44.300781 49.6875 C 43.90625 51.164062 40.835938 57.183594 39.96875 58.4375 C 39.101562 59.6875 37.890625 59.472656 36.878906 59.238281 C 36.847656 59.230469 36.8125 59.222656 36.78125 59.214844 C 35.96875 59.023438 35.703125 58.875 36.320312 57.894531 L 41.40625 49.292969 L 43.160156 49.53125 Z M 44.300781 49.6875 " fill-opacity="1" fill-rule="nonzero"/></g><g clip-path="url(#3418b6674a)"><path fill="#319ac4" d="M 44.300781 49.6875 C 43.90625 51.164062 40.835938 57.183594 39.96875 58.4375 C 39.101562 59.6875 37.890625 59.472656 36.878906 59.238281 C 36.847656 59.230469 36.8125 59.222656 36.78125 59.214844 C 37.421875 59.183594 38.597656 59.285156 39.332031 58.515625 C 40.273438 57.53125 42.492188 52.386719 42.097656 50.324219 L 43.160156 49.527344 Z M 44.300781 49.6875 " fill-opacity="1" fill-rule="nonzero"/></g><g clip-path="url(#701e96356e)"><path fill="#000000" d="M 39.925781 58.40625 C 39.105469 59.589844 37.976562 59.4375 36.890625 59.191406 C 36.433594 59.082031 36.128906 59 36.046875 58.8125 C 35.976562 58.640625 36.070312 58.371094 36.351562 57.925781 L 36.269531 57.871094 C 35.960938 58.351562 35.867188 58.644531 35.949219 58.847656 C 36.046875 59.085938 36.375 59.171875 36.855469 59.285156 C 37.257812 59.375 37.679688 59.464844 38.105469 59.464844 C 38.226562 59.464844 38.347656 59.457031 38.472656 59.4375 C 39.101562 59.351562 39.601562 59.035156 39.996094 58.457031 C 40.847656 57.226562 43.933594 51.1875 44.335938 49.691406 L 44.238281 49.664062 C 43.851562 51.167969 40.777344 57.179688 39.925781 58.40625 Z M 39.925781 58.40625 " fill-opacity="1" fill-rule="nonzero"/></g><path fill="#68bbe3" d="M 42.847656 48.628906 L 42.46875 49.976562 C 41.730469 50.753906 39.027344 54.050781 38.214844 55.359375 C 37.40625 56.671875 36.480469 58.292969 35.65625 58.589844 C 35.398438 58.683594 35.066406 58.6875 34.722656 58.640625 C 33.949219 58.53125 33.132812 58.167969 33.03125 57.921875 C 32.882812 57.5625 37.769531 51.035156 39.601562 49.644531 L 40.1875 49.460938 Z M 42.847656 48.628906 " fill-opacity="1" fill-rule="nonzero"/><path fill="#319ac4" d="M 42.847656 48.628906 L 42.46875 49.976562 C 41.730469 50.753906 39.027344 54.050781 38.214844 55.359375 C 37.40625 56.671875 36.480469 58.292969 35.65625 58.589844 C 35.398438 58.683594 35.066406 58.6875 34.722656 58.640625 C 36.402344 57.976562 37.132812 55.8125 37.769531 54.875 C 38.476562 53.824219 40.707031 50.480469 40.609375 50.351562 C 40.507812 50.242188 39.882812 50.207031 39.417969 50.011719 L 40.183594 49.46875 Z M 42.847656 48.628906 " fill-opacity="1" fill-rule="nonzero"/><path fill="#000000" d="M 38.175781 55.328125 C 38.101562 55.453125 38.019531 55.582031 37.941406 55.710938 C 37.203125 56.914062 36.375 58.277344 35.644531 58.535156 C 34.835938 58.828125 33.21875 58.214844 33.082031 57.894531 C 33.078125 57.871094 33.09375 57.695312 33.808594 56.652344 C 34.285156 55.953125 34.933594 55.066406 35.644531 54.15625 C 37.351562 51.949219 38.847656 50.277344 39.636719 49.675781 L 39.578125 49.597656 C 38.777344 50.207031 37.265625 51.90625 35.539062 54.132812 C 34.832031 55.046875 34.175781 55.9375 33.699219 56.636719 C 32.921875 57.773438 32.96875 57.886719 32.988281 57.9375 C 33.082031 58.160156 33.601562 58.40625 34.078125 58.542969 C 34.289062 58.605469 34.710938 58.71875 35.132812 58.71875 C 35.324219 58.71875 35.507812 58.695312 35.675781 58.636719 C 36.441406 58.359375 37.28125 56.984375 38.03125 55.769531 C 38.109375 55.640625 38.1875 55.511719 38.265625 55.390625 C 39.082031 54.066406 41.785156 50.777344 42.511719 50.015625 L 42.4375 49.949219 C 41.707031 50.703125 38.992188 54.003906 38.175781 55.328125 Z M 38.175781 55.328125 " fill-opacity="1" fill-rule="nonzero"/><g clip-path="url(#2dc800a0ec)"><path fill="#68bbe3" d="M 41.847656 48.480469 L 39.554688 50.023438 C 36.847656 52.359375 31.257812 51.867188 30.402344 51.222656 C 30.394531 51.214844 30.386719 51.210938 30.378906 51.203125 C 30.414062 51.074219 31.449219 50.644531 32.515625 50.269531 L 32.109375 50.296875 C 30.902344 50.425781 29.792969 50.390625 28.804688 50.242188 C 25.59375 49.757812 23.609375 48.125 23.34375 47.464844 C 23.59375 47.238281 24.25 47.074219 25.121094 46.976562 C 25.09375 46.972656 25.066406 46.96875 25.039062 46.96875 C 24.164062 46.878906 23.308594 46.699219 22.5 46.457031 C 19.375 45.523438 16.898438 43.679688 16.398438 42.707031 C 17.046875 42.5 17.796875 42.429688 18.566406 42.453125 L 18.558594 42.445312 C 16.925781 41.921875 14.40625 39.90625 14.339844 39.152344 C 14.570312 39.261719 18.265625 40.492188 21.375 40.535156 C 21.6875 40.539062 22 40.53125 22.296875 40.507812 L 22.742188 40.753906 L 26.609375 42.878906 C 27.949219 43.058594 39.890625 47.371094 41.847656 48.480469 Z M 41.847656 48.480469 " fill-opacity="1" fill-rule="nonzero"/></g><path fill="#b0e3f7" d="M 28.804688 50.253906 C 25.59375 49.769531 23.609375 48.132812 23.34375 47.472656 C 23.59375 47.246094 24.25 47.082031 25.121094 46.984375 C 25.09375 46.980469 25.066406 46.976562 25.039062 46.976562 C 25.570312 46.964844 28.078125 46.71875 29.203125 47.097656 C 27.730469 47.113281 24.683594 47.304688 23.960938 47.550781 C 24.265625 48.03125 26.609375 49.617188 28.804688 50.253906 Z M 28.804688 50.253906 " fill-opacity="1" fill-rule="nonzero"/><g clip-path="url(#7fd1ae7a0c)"><path fill="#b0e3f7" d="M 17.003906 42.933594 C 17.609375 43.546875 20.507812 45.554688 22.488281 46.464844 C 19.367188 45.53125 16.886719 43.6875 16.390625 42.714844 C 17.039062 42.507812 17.789062 42.441406 18.558594 42.460938 L 18.546875 42.453125 C 16.921875 41.9375 14.402344 39.914062 14.335938 39.164062 C 14.566406 39.273438 18.257812 40.503906 21.371094 40.546875 L 21.453125 40.621094 C 20.242188 40.867188 16.453125 40.546875 15.660156 39.984375 C 16.921875 41.363281 18.398438 42.277344 18.851562 42.429688 C 19.425781 42.53125 22.15625 42.820312 23.453125 43.472656 C 21.59375 43.082031 18.242188 42.691406 17.003906 42.933594 Z M 17.003906 42.933594 " fill-opacity="1" fill-rule="nonzero"/></g><path fill="#319ac4" d="M 41.847656 48.480469 L 39.554688 50.023438 C 36.847656 52.359375 31.257812 51.867188 30.402344 51.222656 C 34.015625 51.644531 37.394531 50.058594 37.492188 49.558594 C 32.890625 50.097656 30.972656 47.453125 30.972656 47.269531 C 30.972656 47.269531 31.46875 47.183594 31.816406 46.941406 C 29.15625 46.90625 25.328125 44.792969 24.835938 43.757812 C 24.835938 43.757812 25.441406 43.792969 25.675781 43.597656 C 25.34375 43.5625 23.152344 42.613281 22.0625 40.710938 L 22.742188 40.753906 L 26.609375 42.878906 C 27.949219 43.058594 39.890625 47.371094 41.847656 48.480469 Z M 41.847656 48.480469 " fill-opacity="1" fill-rule="nonzero"/><g clip-path="url(#834dc12e61)"><path fill="#000000" d="M 39.523438 49.992188 C 37.949219 51.34375 35.527344 51.640625 34.21875 51.703125 C 32.453125 51.777344 30.875 51.511719 30.445312 51.203125 C 30.484375 51.164062 30.613281 51.085938 30.96875 50.925781 C 31.277344 50.789062 31.710938 50.625 32.171875 50.453125 C 33.195312 50.082031 34.128906 49.800781 34.5625 49.734375 C 34.5625 49.734375 34.292969 49.65625 33.570312 49.882812 C 33.207031 49.996094 32.8125 50.125 32.453125 50.253906 C 32.261719 50.265625 31.882812 50.28125 31.804688 50.292969 C 29.179688 50.519531 27.183594 49.933594 25.957031 49.386719 C 24.414062 48.699219 23.589844 47.875 23.410156 47.492188 C 23.703125 47.261719 24.507812 47.078125 25.585938 46.992188 C 26.738281 46.90625 28.066406 46.949219 29.234375 47.101562 C 29.234375 47.101562 28.90625 46.945312 27.730469 46.871094 C 26.800781 46.816406 25.882812 46.855469 25.121094 46.941406 C 23.34375 46.769531 21.449219 46.191406 19.707031 45.277344 C 18.898438 44.855469 18.152344 44.375 17.550781 43.886719 C 17.027344 43.46875 16.644531 43.0625 16.464844 42.742188 C 17.558594 42.414062 19.652344 42.277344 23.441406 43.429688 C 23.441406 43.429688 23.050781 43.222656 21.515625 42.820312 C 21.140625 42.71875 20.722656 42.652344 20.296875 42.585938 C 19.679688 42.488281 19.109375 42.429688 18.582031 42.417969 C 17.835938 42.175781 16.804688 41.589844 15.882812 40.867188 C 15.074219 40.214844 14.507812 39.59375 14.402344 39.238281 C 15.097656 39.496094 19.253906 40.800781 22.296875 40.566406 L 22.289062 40.472656 C 19.082031 40.710938 14.632812 39.25 14.351562 39.117188 L 14.277344 39.082031 L 14.285156 39.167969 C 14.351562 39.929688 16.679688 41.789062 18.28125 42.410156 C 17.550781 42.414062 16.914062 42.5 16.371094 42.667969 L 16.3125 42.683594 L 16.339844 42.734375 C 16.515625 43.074219 16.914062 43.507812 17.480469 43.964844 C 18.085938 44.449219 18.839844 44.9375 19.652344 45.363281 C 20.585938 45.847656 21.566406 46.25 22.558594 46.539062 C 23.277344 46.75 23.996094 46.902344 24.695312 46.992188 C 24.019531 47.09375 23.515625 47.246094 23.304688 47.441406 L 23.277344 47.46875 L 23.292969 47.496094 C 23.386719 47.730469 23.683594 48.0625 24.101562 48.394531 C 24.445312 48.671875 25.035156 49.082031 25.90625 49.464844 C 26.960938 49.9375 28.570312 50.433594 30.648438 50.433594 C 31.074219 50.433594 31.65625 50.398438 32.140625 50.351562 C 32.128906 50.355469 32.117188 50.359375 32.105469 50.363281 C 31.632812 50.539062 31.203125 50.707031 30.894531 50.84375 C 30.351562 51.085938 30.332031 51.15625 30.320312 51.1875 L 30.308594 51.21875 L 30.335938 51.238281 C 30.675781 51.53125 31.960938 51.804688 33.578125 51.804688 C 33.785156 51.804688 33.996094 51.800781 34.214844 51.792969 C 35.503906 51.734375 37.886719 51.441406 39.480469 50.140625 C 39.511719 50.117188 39.578125 50.0625 39.605469 50.03125 Z M 39.523438 49.992188 " fill-opacity="1" fill-rule="nonzero"/></g><g clip-path="url(#85224802fa)"><path fill="#68bbe3" d="M 60.582031 32.808594 C 60.417969 35.136719 58.769531 37.9375 56.65625 39.644531 L 52.980469 35.167969 L 52.164062 34.167969 L 52.855469 29.085938 C 51.632812 25.875 51.324219 21.953125 50.84375 19.550781 C 50.21875 16.433594 48.832031 13.71875 48.402344 12.421875 C 47.984375 11.160156 47.695312 9.757812 48.046875 9.582031 C 48.054688 9.578125 48.066406 9.574219 48.074219 9.574219 C 48.46875 9.460938 52.441406 12.878906 54.398438 20.957031 C 54.058594 18.191406 53.199219 15.707031 53.410156 15.667969 C 53.671875 15.617188 55.292969 17.484375 56.179688 19.484375 C 56.40625 19.988281 56.558594 20.546875 56.660156 21.097656 C 57.144531 20.851562 58.09375 22.394531 58.617188 23.785156 C 59.136719 25.164062 59.0625 27.46875 59.34375 29.042969 C 59.5625 28.347656 59.832031 27.769531 60.039062 27.769531 C 60.429688 27.777344 60.746094 30.476562 60.582031 32.808594 Z M 60.582031 32.808594 " fill-opacity="1" fill-rule="nonzero"/></g><g clip-path="url(#642d05bffa)"><path fill="#319ac4" d="M 60.582031 32.808594 C 60.417969 35.136719 58.769531 37.9375 56.65625 39.644531 L 52.980469 35.167969 C 53.199219 34.667969 53.503906 34.296875 53.933594 34.15625 C 55.867188 33.933594 56.773438 35.949219 57.773438 35.925781 C 58.007812 35.917969 59.015625 35.113281 59.410156 33.664062 C 59.804688 32.21875 59.234375 31.203125 58.738281 31.703125 C 58.277344 30.601562 58.515625 28.363281 58.292969 26.515625 C 58.027344 24.308594 57.230469 25.238281 57.203125 26.144531 C 56.078125 25.046875 55.667969 21.304688 55.269531 21.746094 C 54.875 22.183594 54.949219 24.078125 54.332031 24.570312 C 54.574219 22.421875 50.890625 12.132812 48.042969 9.585938 C 48.050781 9.582031 48.0625 9.578125 48.070312 9.578125 C 48.464844 9.464844 52.4375 12.882812 54.394531 20.960938 C 54.054688 18.195312 53.195312 15.710938 53.40625 15.671875 C 53.667969 15.621094 55.289062 17.492188 56.175781 19.488281 C 56.402344 19.992188 56.554688 20.550781 56.65625 21.101562 C 57.140625 20.859375 58.089844 22.398438 58.613281 23.789062 C 59.132812 25.171875 59.058594 27.472656 59.339844 29.046875 C 59.558594 28.351562 59.828125 27.777344 60.035156 27.777344 C 60.429688 27.777344 60.746094 30.476562 60.582031 32.808594 Z M 60.582031 32.808594 " fill-opacity="1" fill-rule="nonzero"/></g><g clip-path="url(#426b00c456)"><path fill="#000000" d="M 60.160156 27.792969 C 60.117188 27.75 60.074219 27.730469 60.035156 27.730469 C 59.78125 27.730469 59.515625 28.371094 59.355469 28.839844 C 59.269531 28.292969 59.21875 27.675781 59.171875 27.027344 C 59.078125 25.851562 58.980469 24.636719 58.664062 23.777344 C 58.214844 22.582031 57.429688 21.238281 56.894531 21.054688 C 56.820312 21.027344 56.753906 21.023438 56.695312 21.039062 C 56.589844 20.5 56.441406 19.960938 56.222656 19.472656 C 55.691406 18.277344 54.972656 17.277344 54.597656 16.785156 C 54.335938 16.449219 54.070312 16.144531 53.859375 15.933594 C 53.519531 15.601562 53.429688 15.617188 53.398438 15.625 C 53.382812 15.628906 53.363281 15.632812 53.347656 15.660156 C 53.285156 15.757812 53.367188 16.128906 53.582031 17.027344 C 53.773438 17.820312 54.027344 18.898438 54.21875 20.074219 C 53.847656 18.71875 53.40625 17.417969 52.890625 16.210938 C 52.355469 14.964844 51.753906 13.804688 51.089844 12.773438 C 50 11.066406 48.890625 9.941406 48.320312 9.609375 C 48.199219 9.539062 48.109375 9.515625 48.058594 9.53125 C 47.996094 9.546875 47.945312 9.59375 47.90625 9.660156 C 47.691406 10.070312 47.996094 11.367188 48.351562 12.445312 C 48.476562 12.816406 48.679688 13.3125 48.914062 13.882812 C 49.519531 15.34375 50.34375 17.34375 50.792969 19.566406 C 50.929688 20.25 51.050781 21.0625 51.1875 21.925781 C 51.519531 24.101562 51.933594 26.804688 52.808594 29.113281 L 52.902344 29.078125 C 52.027344 26.785156 51.613281 24.082031 51.285156 21.914062 C 51.152344 21.050781 51.023438 20.234375 50.890625 19.550781 C 50.441406 17.320312 49.613281 15.308594 49.007812 13.847656 C 48.773438 13.277344 48.566406 12.785156 48.449219 12.417969 C 48.007812 11.085938 47.828125 10.023438 47.996094 9.710938 C 48.019531 9.667969 48.050781 9.640625 48.089844 9.628906 C 48.09375 9.628906 48.128906 9.617188 48.273438 9.699219 C 48.675781 9.929688 49.765625 10.878906 51.011719 12.832031 C 52.011719 14.402344 53.40625 17.085938 54.347656 20.972656 C 54.441406 21.734375 54.496094 22.519531 54.476562 23.28125 C 54.476562 23.28125 54.589844 23.027344 54.566406 22.367188 C 54.484375 20.359375 53.988281 18.304688 53.675781 17.011719 C 53.535156 16.40625 53.398438 15.828125 53.425781 15.730469 C 53.523438 15.742188 53.914062 16.066406 54.515625 16.851562 C 54.894531 17.339844 55.605469 18.335938 56.128906 19.523438 C 56.753906 20.929688 56.808594 22.714844 56.84375 23.894531 C 56.847656 24.054688 56.851562 24.203125 56.855469 24.339844 C 56.867188 24.835938 57.015625 24.996094 57.015625 24.996094 C 56.96875 24.773438 56.957031 24.382812 56.941406 23.890625 C 56.914062 23.140625 56.890625 22.140625 56.710938 21.148438 C 56.75 21.136719 56.800781 21.140625 56.855469 21.15625 C 57.359375 21.328125 58.128906 22.671875 58.5625 23.820312 C 58.882812 24.675781 58.972656 25.882812 59.070312 27.046875 C 59.128906 27.777344 59.179688 28.460938 59.285156 29.058594 C 59.179688 29.378906 59.089844 29.71875 59.023438 30.035156 C 58.882812 30.71875 58.988281 30.984375 58.988281 30.984375 C 59.007812 30.515625 59.167969 29.730469 59.398438 29.027344 C 59.664062 28.207031 59.902344 27.84375 60.03125 27.84375 C 60.050781 27.84375 60.070312 27.859375 60.089844 27.875 C 60.410156 28.222656 60.6875 30.621094 60.53125 32.820312 C 60.375 35.09375 58.761719 37.890625 56.625 39.617188 L 56.6875 39.691406 C 58.847656 37.949219 60.472656 35.125 60.632812 32.824219 C 60.777344 30.730469 60.542969 28.195312 60.160156 27.792969 Z M 60.160156 27.792969 " fill-opacity="1" fill-rule="nonzero"/></g><path fill="#68bbe3" d="M 56.210938 40.59375 C 56.109375 43.664062 56.035156 45.460938 52.988281 47.644531 C 49.945312 49.832031 46.664062 50.265625 45.207031 50.214844 C 45.175781 50.09375 45.375 49.839844 45.554688 49.679688 C 44.292969 50.1875 43.105469 50.363281 42.296875 50.398438 C 41.632812 50.421875 41.222656 50.347656 41.242188 50.269531 C 41.277344 50.109375 41.632812 49.703125 41.875 49.3125 C 41.753906 49.371094 41.632812 49.429688 41.503906 49.488281 C 41.28125 49.582031 41.0625 49.679688 40.835938 49.753906 C 39.488281 50.222656 38.210938 49.960938 38.035156 49.714844 C 38.023438 49.707031 38.019531 49.691406 38.015625 49.683594 C 37.992188 49.589844 38.363281 49.296875 38.871094 48.9375 C 38.855469 48.941406 38.839844 48.945312 38.824219 48.945312 C 38.117188 49.105469 36.851562 49.292969 35.324219 49.125 C 33.089844 48.882812 31.714844 47.707031 31.890625 47.4375 C 32.007812 47.269531 33.816406 46.949219 35.328125 46.722656 C 35.175781 46.726562 35.011719 46.730469 34.839844 46.730469 C 33.664062 46.753906 32.078125 46.722656 30.855469 46.484375 C 28.859375 46.097656 26.398438 44.679688 25.984375 44.007812 C 25.960938 43.976562 25.945312 43.941406 25.9375 43.917969 C 26.054688 43.824219 26.359375 43.757812 26.78125 43.726562 C 26.9375 43.714844 27.113281 43.699219 27.304688 43.699219 C 27.335938 43.699219 27.371094 43.695312 27.398438 43.695312 C 27.390625 43.695312 27.386719 43.691406 27.378906 43.691406 C 25.417969 43.226562 24.042969 42.625 22.746094 41.703125 C 21.386719 40.746094 20.84375 39.742188 20.878906 39.515625 C 20.878906 39.507812 20.878906 39.507812 20.878906 39.503906 C 20.929688 39.292969 22.105469 39.714844 24.773438 40.207031 C 28.003906 40.808594 36.226562 41.425781 37.585938 41.742188 C 37.585938 41.742188 44.136719 42.800781 47.546875 43.34375 C 48.71875 43.53125 49.519531 43.652344 49.550781 43.648438 Z M 56.210938 40.59375 " fill-opacity="1" fill-rule="nonzero"/><path fill="#319ac4" d="M 32.191406 44.097656 C 31.484375 43.847656 28.273438 43.625 27.382812 43.691406 C 25.421875 43.226562 24.046875 42.625 22.75 41.703125 C 21.390625 40.746094 20.847656 39.742188 20.882812 39.515625 C 22.429688 41.933594 26.777344 43.03125 27.851562 43.058594 C 28.9375 43.097656 31.894531 43.851562 32.191406 44.097656 Z M 32.191406 44.097656 " fill-opacity="1" fill-rule="nonzero"/><path fill="#319ac4" d="M 37.210938 46.539062 C 36.546875 46.542969 35.328125 46.679688 34.839844 46.738281 C 33.664062 46.761719 32.078125 46.730469 30.855469 46.496094 C 28.859375 46.105469 26.398438 44.6875 25.984375 44.015625 L 25.996094 43.941406 C 27.820312 45.382812 30.75 46.070312 32.675781 46.117188 C 34.597656 46.148438 37.117188 46.433594 37.210938 46.539062 Z M 37.210938 46.539062 " fill-opacity="1" fill-rule="nonzero"/><path fill="#319ac4" d="M 41.160156 47.195312 C 41.089844 47.390625 39.480469 48.574219 38.832031 48.945312 C 38.121094 49.105469 36.855469 49.292969 35.328125 49.125 C 33.09375 48.882812 31.71875 47.707031 31.894531 47.4375 C 34.089844 49.054688 39.503906 48.199219 41.160156 47.195312 Z M 41.160156 47.195312 " fill-opacity="1" fill-rule="nonzero"/><path fill="#319ac4" d="M 44.113281 47.925781 C 43.539062 48.394531 42.300781 49.152344 41.839844 49.316406 C 41.757812 49.34375 41.644531 49.40625 41.515625 49.484375 C 41.292969 49.578125 41.070312 49.675781 40.84375 49.75 C 39.496094 50.21875 38.21875 49.957031 38.042969 49.710938 L 38.070312 49.664062 C 39.839844 49.824219 43.695312 48.15625 44.113281 47.925781 Z M 44.113281 47.925781 " fill-opacity="1" fill-rule="nonzero"/><path fill="#319ac4" d="M 56.210938 40.59375 C 56.109375 43.664062 56.035156 45.460938 52.988281 47.644531 C 49.945312 49.832031 46.664062 50.265625 45.207031 50.214844 C 45.175781 50.09375 45.375 49.839844 45.554688 49.679688 C 44.292969 50.1875 43.105469 50.363281 42.296875 50.398438 C 44.1875 50.042969 45.945312 49.25 47.15625 48.421875 C 47.082031 48.75 46.722656 49.4375 46.171875 49.699219 C 46.53125 49.632812 47.464844 49.4375 48.007812 48.847656 C 48.550781 48.257812 48.777344 47.59375 47.957031 46.78125 C 47.957031 46.78125 47.957031 47.007812 47.933594 47.296875 C 47.539062 47.101562 46.347656 46.09375 45.925781 44.277344 L 47.546875 43.34375 C 48.71875 43.53125 49.519531 43.652344 49.550781 43.648438 Z M 56.210938 40.59375 " fill-opacity="1" fill-rule="nonzero"/><path fill="#000000" d="M 56.160156 40.59375 C 56.0625 43.605469 56.003906 45.425781 52.960938 47.609375 C 51.617188 48.574219 50.113281 49.289062 48.488281 49.726562 C 46.890625 50.160156 45.722656 50.1875 45.253906 50.167969 C 45.269531 50.0625 45.429688 49.863281 45.578125 49.722656 C 45.949219 49.546875 46.050781 49.40625 46.050781 49.40625 C 44.761719 50.011719 43.578125 50.234375 42.808594 50.3125 C 41.886719 50.40625 41.367188 50.320312 41.292969 50.269531 C 41.320312 50.183594 41.445312 50.007812 41.582031 49.824219 C 41.691406 49.675781 41.808594 49.511719 41.90625 49.347656 C 42.429688 49.09375 42.914062 48.820312 43.296875 48.578125 C 44.050781 48.097656 44.105469 47.925781 44.105469 47.925781 C 44.089844 47.9375 42.445312 49.132812 40.8125 49.703125 C 39.695312 50.09375 38.609375 49.976562 38.1875 49.769531 C 38.089844 49.71875 38.0625 49.679688 38.058594 49.664062 C 38.0625 49.640625 38.109375 49.554688 38.53125 49.234375 C 38.824219 49.011719 39.222656 48.742188 39.605469 48.476562 C 39.9375 48.25 40.265625 48.03125 40.527344 47.832031 C 41.101562 47.402344 41.144531 47.1875 41.144531 47.1875 C 40.972656 47.414062 40.246094 47.910156 39.546875 48.394531 C 39.324219 48.550781 39.101562 48.699219 38.894531 48.851562 C 38.738281 48.9375 37.519531 49.3125 35.316406 49.078125 C 34.242188 48.964844 33.445312 48.640625 32.964844 48.390625 C 32.367188 48.085938 32.015625 47.753906 31.929688 47.566406 C 31.90625 47.523438 31.902344 47.484375 31.914062 47.46875 C 31.933594 47.441406 32.132812 47.292969 34.261719 46.941406 C 35.386719 46.753906 36.703125 46.574219 37.191406 46.535156 C 37.191406 46.535156 36.894531 46.460938 35.667969 46.625 C 35.527344 46.628906 35.328125 46.632812 35.238281 46.632812 C 34.515625 46.671875 32.59375 46.78125 30.84375 46.441406 C 28.792969 46.039062 26.257812 44.550781 25.972656 43.933594 C 26.242188 43.777344 27.210938 43.710938 28.597656 43.757812 C 29.933594 43.808594 31.359375 43.949219 32.230469 44.128906 C 32.230469 44.128906 31.964844 43.953125 31.011719 43.84375 C 30.273438 43.757812 29.421875 43.6875 28.605469 43.660156 C 28.308594 43.652344 27.851562 43.632812 27.394531 43.648438 C 25.480469 43.191406 24.078125 42.59375 22.761719 41.660156 C 21.375 40.683594 20.875 39.683594 20.917969 39.519531 C 20.917969 39.519531 20.929688 39.476562 21.210938 39.519531 C 21.429688 39.550781 21.753906 39.625 22.199219 39.726562 C 22.816406 39.867188 23.664062 40.058594 24.757812 40.261719 C 26.535156 40.59375 29.785156 40.925781 32.648438 41.210938 C 34.960938 41.449219 36.957031 41.648438 37.5625 41.792969 L 37.589844 41.699219 C 36.972656 41.558594 34.976562 41.347656 32.664062 41.117188 C 29.796875 40.824219 26.554688 40.496094 24.773438 40.167969 C 23.679688 39.964844 22.835938 39.773438 22.21875 39.628906 C 21.203125 39.402344 20.859375 39.328125 20.820312 39.496094 C 20.789062 39.636719 20.953125 39.984375 21.226562 40.351562 C 21.484375 40.6875 21.945312 41.203125 22.703125 41.742188 C 23.953125 42.625 25.277344 43.210938 27.03125 43.65625 C 26.511719 43.679688 26.050781 43.742188 25.886719 43.871094 L 25.863281 43.894531 L 25.871094 43.925781 C 25.980469 44.246094 26.664062 44.777344 27.644531 45.320312 C 28.710938 45.90625 29.871094 46.34375 30.820312 46.53125 C 31.8125 46.722656 32.851562 46.777344 33.703125 46.777344 C 34.109375 46.777344 34.476562 46.765625 34.777344 46.753906 C 34.59375 46.777344 34.417969 46.808594 34.242188 46.839844 C 33.59375 46.949219 33.039062 47.046875 32.636719 47.140625 C 31.902344 47.300781 31.851562 47.378906 31.828125 47.410156 C 31.804688 47.441406 31.785156 47.503906 31.832031 47.605469 C 32.042969 48.058594 33.375 48.972656 35.296875 49.171875 C 35.820312 49.230469 36.28125 49.246094 36.683594 49.246094 C 37.210938 49.246094 37.632812 49.207031 37.933594 49.171875 C 38.21875 49.128906 38.445312 49.082031 38.613281 49.042969 C 38.550781 49.085938 38.488281 49.132812 38.433594 49.175781 C 38 49.5 37.925781 49.613281 37.949219 49.691406 C 37.964844 49.75 38.03125 49.808594 38.128906 49.855469 C 38.355469 49.96875 38.773438 50.058594 39.28125 50.058594 C 39.746094 50.058594 40.289062 49.980469 40.832031 49.796875 C 41.128906 49.6875 41.425781 49.566406 41.71875 49.429688 C 41.644531 49.546875 41.558594 49.65625 41.480469 49.765625 C 41.320312 49.988281 41.195312 50.15625 41.175781 50.257812 C 41.167969 50.269531 41.164062 50.308594 41.207031 50.335938 C 41.292969 50.402344 41.589844 50.449219 42.015625 50.449219 C 42.253906 50.449219 42.535156 50.4375 42.84375 50.402344 C 43.460938 50.335938 44.34375 50.179688 45.332031 49.804688 C 45.203125 49.953125 45.105469 50.125 45.132812 50.222656 L 45.140625 50.261719 L 45.179688 50.261719 C 45.242188 50.265625 45.320312 50.265625 45.421875 50.265625 C 45.980469 50.265625 47.070312 50.203125 48.492188 49.816406 C 50.128906 49.371094 51.644531 48.648438 52.992188 47.683594 C 56.074219 45.46875 56.132812 43.632812 56.234375 40.59375 Z M 56.160156 40.59375 " fill-opacity="1" fill-rule="nonzero"/><path fill="#e7e7e7" d="M 55.730469 37.277344 C 56.789062 38.015625 57.203125 40.128906 56.820312 41.375 C 56.523438 41.160156 56.128906 40.992188 55.996094 40.992188 C 56.125 41.59375 56.425781 44.472656 53.785156 45.8125 C 52.578125 46.425781 51.378906 46.835938 50.347656 46.886719 C 49.128906 46.945312 48.144531 46.503906 47.660156 45.304688 C 47.644531 45.710938 47.480469 46.210938 47.285156 46.246094 C 46.863281 46.144531 45.71875 45.09375 45.765625 43.292969 L 46.46875 42.542969 L 53.933594 34.585938 C 55.339844 34.78125 56.839844 36.191406 57.019531 36.84375 C 56.933594 37.097656 55.996094 37.3125 55.730469 37.277344 Z M 55.730469 37.277344 " fill-opacity="1" fill-rule="nonzero"/><path fill="#cccccc" d="M 51.769531 40.136719 C 52.257812 39.941406 53.253906 40.03125 53.664062 40.664062 C 53.632812 40.773438 53.324219 41.128906 52.726562 41.195312 C 53.246094 41.390625 54.054688 41.964844 53.996094 43.242188 C 53.78125 42.300781 52.734375 41.179688 51.722656 41.375 C 51.996094 41.039062 53.148438 40.824219 53.324219 40.738281 C 53.46875 40.394531 52.484375 40.128906 51.769531 40.136719 Z M 51.769531 40.136719 " fill-opacity="1" fill-rule="nonzero"/><path fill="#cccccc" d="M 55.730469 37.277344 C 56.789062 38.015625 57.203125 40.128906 56.820312 41.375 C 56.523438 41.160156 56.128906 40.992188 55.996094 40.992188 C 56.125 41.59375 56.425781 44.472656 53.785156 45.8125 C 52.578125 46.425781 51.378906 46.835938 50.347656 46.886719 C 56.152344 45.71875 55.519531 40.601562 54.484375 39.480469 C 54.628906 39.457031 55.871094 39.699219 56.316406 40.292969 C 56.214844 39.457031 55.933594 37.472656 53.886719 36.75 C 53.15625 37.980469 50.0625 41.535156 46.464844 42.542969 L 53.933594 34.589844 C 55.339844 34.785156 56.839844 36.195312 57.019531 36.851562 C 56.933594 37.097656 55.996094 37.3125 55.730469 37.277344 Z M 55.730469 37.277344 " fill-opacity="1" fill-rule="nonzero"/><path fill="#000000" d="M 55.960938 35.511719 C 55.574219 35.207031 54.796875 34.664062 53.9375 34.546875 L 53.925781 34.644531 C 55.296875 34.835938 56.773438 36.214844 56.964844 36.855469 C 56.921875 36.941406 56.71875 37.046875 56.429688 37.128906 C 56.160156 37.203125 55.863281 37.253906 55.734375 37.238281 L 55.539062 37.210938 L 55.703125 37.324219 C 56.175781 37.65625 56.566406 38.324219 56.769531 39.152344 C 56.949219 39.90625 56.960938 40.699219 56.792969 41.300781 C 56.496094 41.101562 56.128906 40.945312 55.996094 40.945312 L 55.9375 40.945312 L 55.949219 41.003906 C 56.03125 41.367188 56.109375 42.21875 55.882812 43.113281 C 55.585938 44.3125 54.871094 45.207031 53.761719 45.769531 C 52.390625 46.46875 50.460938 47.1875 49.0625 46.667969 C 48.4375 46.4375 47.980469 45.96875 47.703125 45.285156 L 47.613281 45.074219 L 47.605469 45.304688 C 47.589844 45.71875 47.429688 46.15625 47.277344 46.195312 C 47.101562 46.148438 46.730469 45.894531 46.386719 45.382812 C 46.109375 44.964844 45.78125 44.265625 45.8125 43.296875 L 45.710938 43.292969 C 45.667969 45.105469 46.816406 46.1875 47.265625 46.292969 L 47.273438 46.296875 L 47.285156 46.296875 C 47.492188 46.265625 47.640625 45.863281 47.6875 45.507812 C 47.980469 46.125 48.429688 46.542969 49.023438 46.769531 C 49.367188 46.898438 49.746094 46.953125 50.128906 46.953125 C 51.363281 46.953125 52.742188 46.402344 53.800781 45.867188 C 54.414062 45.554688 54.917969 45.128906 55.296875 44.617188 C 55.605469 44.1875 55.835938 43.695312 55.972656 43.148438 C 56.183594 42.289062 56.128906 41.464844 56.050781 41.0625 C 56.207031 41.101562 56.523438 41.242188 56.785156 41.425781 L 56.84375 41.464844 L 56.863281 41.398438 C 57.058594 40.777344 57.054688 39.933594 56.855469 39.136719 C 56.664062 38.335938 56.316406 37.703125 55.871094 37.339844 C 56.246094 37.316406 56.976562 37.125 57.0625 36.882812 L 57.066406 36.871094 L 57.0625 36.859375 C 56.96875 36.496094 56.535156 35.972656 55.960938 35.511719 Z M 55.960938 35.511719 " fill-opacity="1" fill-rule="nonzero"/><path fill="#000000" d="M 52.976562 41.222656 C 53.25 41.125 53.707031 40.867188 53.722656 40.695312 L 53.722656 40.683594 L 53.714844 40.671875 C 53.585938 40.394531 53.285156 40.183594 52.863281 40.070312 C 52.734375 40.039062 52.601562 40.011719 52.457031 40 C 51.980469 39.976562 51.765625 40.140625 51.765625 40.140625 C 52.347656 40.007812 53.335938 40.132812 53.617188 40.695312 C 53.578125 40.820312 53.027344 41.132812 52.820312 41.167969 L 52.644531 41.195312 L 52.8125 41.261719 C 53.375 41.484375 53.988281 42.140625 54.003906 43.3125 C 54.003906 43.3125 54.160156 42.945312 53.941406 42.363281 C 53.726562 41.785156 53.355469 41.40625 52.976562 41.222656 Z M 52.976562 41.222656 " fill-opacity="1" fill-rule="nonzero"/><path fill="#68bbe3" d="M 52.617188 37.371094 C 50.835938 39.902344 47.761719 41.792969 46.230469 42.507812 L 43.605469 42.828125 C 41.527344 43.199219 39.964844 42.53125 39.222656 42.386719 C 38.445312 42.328125 37.820312 42.203125 37.316406 42.019531 C 36.910156 41.875 36.585938 41.691406 36.324219 41.476562 C 35.15625 40.542969 35.214844 39.050781 35.039062 37.714844 C 32.785156 35.378906 31.820312 33.164062 32.339844 29.898438 C 32.539062 28.632812 32.863281 27.71875 33.367188 26.941406 C 34.160156 25.710938 35.394531 24.84375 37.265625 23.53125 C 41.308594 21.632812 44.285156 22.144531 46.429688 22.976562 C 46.914062 23.167969 47.355469 23.367188 47.757812 23.566406 C 50.125 24.734375 51.554688 27.828125 52.71875 28.6875 C 53.878906 29.550781 54.523438 30.40625 54.894531 31.367188 C 55.261719 32.332031 54.398438 34.839844 52.617188 37.371094 Z M 52.617188 37.371094 " fill-opacity="1" fill-rule="nonzero"/><path fill="#b0e3f7" d="M 36.328125 41.476562 C 35.160156 40.542969 35.21875 39.050781 35.042969 37.714844 C 32.789062 35.378906 31.824219 33.164062 32.34375 29.898438 C 32.546875 28.632812 32.867188 27.71875 33.371094 26.941406 L 33.582031 27.539062 C 32.761719 28.105469 31.527344 34.257812 35.539062 37.472656 C 35.570312 38.632812 35.558594 40.3125 36.328125 41.476562 Z M 36.328125 41.476562 " fill-opacity="1" fill-rule="nonzero"/><path fill="#319ac4" d="M 52.617188 37.371094 C 50.835938 39.902344 47.761719 41.792969 46.230469 42.507812 L 43.605469 42.828125 C 41.527344 43.199219 39.964844 42.53125 39.222656 42.386719 C 38.445312 42.328125 37.820312 42.203125 37.316406 42.019531 C 38.265625 42.085938 39.476562 41.882812 39.820312 41.648438 C 40.316406 41.648438 41.976562 41.472656 42.023438 40.371094 C 42.023438 40.371094 46.0625 40.371094 47.175781 38.476562 C 49.875 38.351562 52.816406 35.574219 53.3125 33.339844 C 53.808594 31.101562 52.671875 29.894531 52.015625 29.300781 C 51.242188 28.59375 49.851562 25.203125 46.429688 22.980469 C 46.914062 23.171875 47.355469 23.371094 47.757812 23.570312 C 50.125 24.738281 51.554688 27.832031 52.71875 28.691406 C 53.878906 29.554688 54.523438 30.410156 54.894531 31.371094 C 55.261719 32.335938 54.398438 34.839844 52.617188 37.371094 Z M 52.617188 37.371094 " fill-opacity="1" fill-rule="nonzero"/><path fill="#000000" d="M 52.75 28.65625 C 52.339844 28.355469 51.871094 27.738281 51.328125 27.023438 C 50.375 25.761719 49.550781 24.464844 47.839844 23.558594 C 47.574219 23.417969 46.332031 22.453125 43.035156 22.207031 C 41.269531 22.074219 39.378906 22.496094 37.25 23.488281 L 37.242188 23.492188 C 34.199219 25.625 32.816406 26.597656 32.292969 29.890625 C 32.164062 30.710938 32.125 31.460938 32.179688 32.175781 C 32.234375 32.878906 32.371094 33.53125 32.609375 34.171875 C 33.042969 35.363281 33.804688 36.496094 34.996094 37.738281 C 35.023438 37.949219 35.046875 38.167969 35.070312 38.382812 C 35.160156 39.296875 35.257812 40.246094 35.804688 41 C 36.097656 41.402344 36.496094 41.71875 37.015625 41.949219 C 37.597656 42.210938 38.320312 42.371094 39.21875 42.429688 C 39.363281 42.460938 39.542969 42.507812 39.75 42.570312 C 40.390625 42.742188 41.265625 42.988281 42.351562 42.988281 C 42.746094 42.988281 43.167969 42.957031 43.617188 42.878906 L 43.601562 42.78125 C 41.945312 43.074219 40.640625 42.714844 39.777344 42.476562 C 39.566406 42.417969 39.386719 42.371094 39.238281 42.339844 L 39.230469 42.339844 C 37.574219 42.222656 36.476562 41.769531 35.878906 40.945312 C 35.351562 40.21875 35.253906 39.28125 35.160156 38.375 C 35.136719 38.152344 35.121094 37.929688 35.085938 37.710938 L 35.082031 37.695312 L 35.074219 37.6875 C 32.683594 35.207031 31.898438 32.953125 32.386719 29.910156 C 32.902344 26.660156 34.277344 25.695312 37.292969 23.578125 C 39.183594 22.699219 41.292969 22.222656 43.011719 22.339844 C 45.617188 22.515625 46.683594 23.050781 47.78125 23.65625 C 49.414062 24.554688 50.289062 25.832031 51.238281 27.085938 C 51.78125 27.804688 52.25 28.425781 52.679688 28.738281 C 53.761719 29.539062 54.449219 30.382812 54.839844 31.394531 C 55.019531 31.859375 54.902344 32.699219 54.507812 33.765625 C 54.097656 34.882812 53.40625 36.152344 52.566406 37.34375 C 50.78125 39.882812 47.722656 41.757812 46.195312 42.464844 L 46.238281 42.554688 C 47.773438 41.84375 50.847656 39.960938 52.644531 37.402344 C 53.488281 36.203125 54.183594 34.925781 54.601562 33.804688 C 55.003906 32.714844 55.121094 31.847656 54.929688 31.359375 C 54.546875 30.328125 53.847656 29.464844 52.75 28.65625 Z M 52.75 28.65625 " fill-opacity="1" fill-rule="nonzero"/><path fill="#68bbe3" d="M 37.546875 23.527344 L 35.316406 29.964844 L 35.316406 29.96875 L 35.296875 30.027344 C 35.238281 29.921875 35.175781 29.785156 35.121094 29.628906 C 34.898438 28.992188 34.730469 28.011719 34.726562 27.398438 C 34.5 27.527344 34.066406 28.675781 33.609375 28.628906 C 33.152344 28.578125 32.988281 26.792969 34.089844 25.910156 C 33.796875 25.992188 31.949219 26.894531 31.632812 26.5625 C 31.308594 26.234375 33.265625 24.570312 34.332031 24.042969 C 34.871094 23.765625 35.578125 23.636719 36.195312 23.558594 C 36.777344 23.484375 37.289062 23.460938 37.523438 23.40625 C 37.53125 23.40625 37.535156 23.402344 37.542969 23.402344 L 37.542969 23.40625 Z M 37.546875 23.527344 " fill-opacity="1" fill-rule="nonzero"/><path fill="#b0e3f7" d="M 36.191406 23.558594 C 35.242188 23.734375 34.46875 24.066406 33.078125 25.253906 C 32.722656 25.558594 31.851562 26.269531 31.882812 26.335938 C 31.902344 26.386719 32.273438 26.292969 32.472656 26.234375 C 33.164062 26.03125 33.871094 25.585938 34.929688 25.601562 C 34.324219 25.851562 33.558594 26.867188 33.53125 27.757812 C 33.523438 27.941406 33.605469 28.296875 33.640625 28.3125 C 33.675781 28.324219 33.863281 28.109375 33.960938 27.984375 C 34.265625 27.609375 34.480469 27.082031 35.003906 26.980469 C 34.894531 27.25 35.109375 29.449219 35.320312 29.964844 C 35.320312 29.96875 35.324219 29.972656 35.328125 29.976562 C 35.324219 29.972656 35.324219 29.96875 35.320312 29.96875 C 35.25 29.882812 35.175781 29.730469 35.128906 29.632812 C 34.90625 28.996094 34.738281 28.015625 34.734375 27.402344 C 34.507812 27.53125 34.074219 28.679688 33.617188 28.632812 C 33.160156 28.582031 32.996094 26.796875 34.097656 25.914062 C 33.808594 26 31.957031 26.898438 31.640625 26.570312 C 31.316406 26.238281 33.273438 24.574219 34.339844 24.046875 C 34.871094 23.765625 35.578125 23.636719 36.191406 23.558594 Z M 36.191406 23.558594 " fill-opacity="1" fill-rule="nonzero"/><path fill="#000000" d="M 36.875 23.433594 C 36.160156 23.503906 35.070312 23.609375 34.300781 23.992188 C 33.832031 24.226562 33.183594 24.683594 32.597656 25.183594 C 32.300781 25.441406 31.605469 26.070312 31.542969 26.417969 C 31.53125 26.492188 31.546875 26.550781 31.589844 26.59375 C 31.839844 26.851562 32.777344 26.492188 33.710938 26.105469 C 33.765625 26.082031 33.816406 26.066406 33.863281 26.042969 C 33.527344 26.394531 33.367188 26.800781 33.285156 27.105469 C 33.183594 27.523438 33.179688 27.957031 33.273438 28.289062 C 33.347656 28.523438 33.460938 28.664062 33.597656 28.675781 C 33.921875 28.710938 34.21875 28.230469 34.453125 27.84375 C 34.53125 27.714844 34.609375 27.585938 34.671875 27.507812 C 34.691406 28.015625 34.792969 28.734375 34.960938 29.304688 C 35.136719 29.898438 35.328125 30.003906 35.328125 30.003906 C 35.027344 29.480469 34.769531 28.15625 34.765625 27.398438 L 34.765625 27.308594 L 34.691406 27.351562 C 34.597656 27.40625 34.5 27.574219 34.367188 27.789062 C 34.160156 28.128906 33.875 28.605469 33.609375 28.574219 C 33.519531 28.566406 33.425781 28.445312 33.367188 28.253906 C 33.203125 27.695312 33.324219 26.578125 34.109375 25.941406 L 34.296875 25.785156 L 34.066406 25.851562 C 34 25.875 33.855469 25.925781 33.667969 26.011719 C 33.339844 26.148438 32.894531 26.332031 32.496094 26.457031 C 31.921875 26.632812 31.722656 26.589844 31.660156 26.523438 C 31.652344 26.515625 31.632812 26.492188 31.640625 26.429688 C 31.71875 25.949219 33.382812 24.554688 34.34375 24.074219 C 35.09375 23.699219 36.167969 23.597656 36.878906 23.527344 C 37.175781 23.496094 37.402344 23.488281 37.539062 23.449219 L 37.59375 23.425781 L 37.546875 23.339844 C 37.421875 23.382812 37.167969 23.410156 36.875 23.433594 Z M 36.875 23.433594 " fill-opacity="1" fill-rule="nonzero"/><path fill="#000000" d="M 33.949219 33.648438 C 33.488281 34.464844 34.308594 35.328125 34.308594 35.328125 C 34.097656 34.953125 33.9375 34.339844 34.199219 33.859375 C 34.417969 33.464844 34.890625 33.234375 35.558594 33.191406 C 35.558594 33.183594 34.332031 32.980469 33.949219 33.648438 Z M 33.949219 33.648438 " fill-opacity="1" fill-rule="nonzero"/><path fill="#000000" d="M 42.554688 27.703125 C 41.902344 28.113281 42.148438 29.101562 42.148438 29.101562 C 42.148438 28.742188 42.289062 28.21875 42.6875 27.929688 C 43.019531 27.691406 43.460938 27.660156 43.996094 27.839844 C 43.996094 27.839844 43.164062 27.320312 42.554688 27.703125 Z M 42.554688 27.703125 " fill-opacity="1" fill-rule="nonzero"/><path fill="#ffffff" d="M 35.824219 35.152344 C 34.382812 35.8125 36.21875 39.707031 39.601562 39.394531 L 39.730469 39.246094 C 39.667969 38.132812 37.640625 34.316406 35.824219 35.152344 Z M 35.824219 35.152344 " fill-opacity="1" fill-rule="nonzero"/><path fill="#dd6a0b" d="M 39.304688 37.464844 C 39.6875 38.050781 39.699219 38.71875 39.335938 38.949219 C 38.976562 39.175781 38.378906 38.886719 37.996094 38.292969 C 37.988281 38.277344 37.96875 38.261719 37.960938 38.238281 C 37.613281 37.664062 37.609375 37.03125 37.957031 36.808594 C 38.308594 36.582031 38.894531 36.859375 39.273438 37.421875 C 39.28125 37.4375 39.292969 37.449219 39.304688 37.464844 Z M 39.304688 37.464844 " fill-opacity="1" fill-rule="nonzero"/><path fill="#db880e" d="M 39.238281 37.503906 C 38.898438 36.96875 38.953125 37.617188 38.625 37.824219 C 38.300781 38.03125 37.714844 37.722656 38.054688 38.257812 C 38.394531 38.789062 38.9375 39.050781 39.265625 38.84375 C 39.59375 38.636719 39.582031 38.035156 39.238281 37.503906 Z M 39.238281 37.503906 " fill-opacity="1" fill-rule="nonzero"/><path fill="#f9aa41" d="M 39.207031 37.644531 C 38.929688 37.214844 38.976562 37.738281 38.71875 37.902344 C 38.457031 38.070312 37.984375 37.820312 38.261719 38.25 C 38.535156 38.675781 38.972656 38.890625 39.234375 38.722656 C 39.492188 38.554688 39.480469 38.074219 39.207031 37.644531 Z M 39.207031 37.644531 " fill-opacity="1" fill-rule="nonzero"/><path fill="#000000" d="M 38.289062 37.273438 C 38.394531 37.207031 38.527344 37.210938 38.6875 37.285156 C 38.84375 37.363281 38.980469 37.488281 39.09375 37.667969 C 39.207031 37.84375 39.265625 38.019531 39.269531 38.191406 C 39.273438 38.367188 39.222656 38.488281 39.113281 38.558594 C 39.007812 38.625 38.875 38.621094 38.71875 38.546875 C 38.558594 38.46875 38.421875 38.34375 38.308594 38.164062 C 38.195312 37.988281 38.136719 37.8125 38.132812 37.640625 C 38.128906 37.464844 38.179688 37.34375 38.289062 37.273438 Z M 38.289062 37.273438 " fill-opacity="1" fill-rule="nonzero"/><path fill="#ffffff" d="M 38.242188 37.769531 C 38.320312 37.71875 38.398438 37.75 38.472656 37.867188 C 38.550781 37.984375 38.546875 38.066406 38.46875 38.117188 C 38.386719 38.167969 38.308594 38.136719 38.234375 38.019531 C 38.160156 37.902344 38.160156 37.820312 38.242188 37.769531 Z M 38.242188 37.769531 " fill-opacity="1" fill-rule="nonzero"/><path fill="#ffffff" d="M 38.949219 38.046875 C 38.976562 38.027344 39.007812 38.039062 39.035156 38.085938 C 39.066406 38.128906 39.0625 38.160156 39.035156 38.179688 C 39.003906 38.199219 38.972656 38.1875 38.945312 38.140625 C 38.917969 38.097656 38.917969 38.066406 38.949219 38.046875 Z M 38.949219 38.046875 " fill-opacity="1" fill-rule="nonzero"/><path fill="#542502" d="M 39.355469 38.972656 C 38.980469 39.210938 38.363281 38.910156 37.980469 38.304688 C 37.589844 37.703125 37.574219 37.023438 37.945312 36.789062 C 38.320312 36.550781 38.933594 36.851562 39.320312 37.453125 C 39.707031 38.058594 39.722656 38.738281 39.355469 38.972656 Z M 37.976562 36.835938 C 37.621094 37.0625 37.640625 37.707031 38.011719 38.285156 C 38.386719 38.859375 38.96875 39.148438 39.320312 38.921875 C 39.671875 38.699219 39.65625 38.050781 39.28125 37.472656 C 38.914062 36.898438 38.328125 36.613281 37.976562 36.835938 Z M 37.976562 36.835938 " fill-opacity="1" fill-rule="nonzero"/><path fill="#b0e3f7" d="M 37.152344 35.191406 C 38.296875 36.066406 39.375 37.683594 39.738281 39.09375 C 40.433594 39.085938 40.191406 38.589844 40.191406 38.589844 C 40.058594 38.285156 38.59375 35.644531 37.152344 35.191406 Z M 37.152344 35.191406 " fill-opacity="1" fill-rule="nonzero"/><path fill="#000000" d="M 37.242188 35.253906 C 36.730469 34.953125 36.246094 34.902344 35.796875 35.105469 C 35.324219 35.328125 35.15625 35.886719 35.359375 36.613281 C 35.554688 37.335938 36.078125 38.085938 36.757812 38.609375 C 37.273438 39.011719 38.101562 39.460938 39.214844 39.460938 C 39.339844 39.460938 39.476562 39.453125 39.605469 39.441406 L 39.597656 39.347656 C 37.3125 39.554688 35.796875 37.859375 35.453125 36.589844 C 35.269531 35.917969 35.417969 35.394531 35.84375 35.199219 C 36.253906 35.003906 36.710938 35.054688 37.191406 35.339844 C 37.976562 35.804688 38.609375 36.753906 38.914062 37.28125 C 39.351562 38.035156 39.660156 38.824219 39.691406 39.25 L 39.789062 39.242188 C 39.765625 38.800781 39.449219 37.996094 39.003906 37.234375 C 38.6875 36.695312 38.046875 35.734375 37.242188 35.253906 Z M 37.242188 35.253906 " fill-opacity="1" fill-rule="nonzero"/><path fill="#ffffff" d="M 44.6875 29.988281 C 43.214844 30.414062 43.214844 34.121094 45.515625 36.015625 C 46.488281 35.949219 48.070312 34.785156 48.269531 33.34375 C 48.464844 31.90625 46.15625 29.5625 44.6875 29.988281 Z M 44.6875 29.988281 " fill-opacity="1" fill-rule="nonzero"/><path fill="#dd6a0b" d="M 47.632812 32.640625 C 48.074219 33.472656 47.839844 34.460938 47.101562 34.851562 C 46.363281 35.242188 45.40625 34.890625 44.960938 34.058594 C 44.949219 34.03125 44.933594 34.007812 44.921875 33.980469 C 44.527344 33.164062 44.773438 32.222656 45.488281 31.84375 C 46.210938 31.460938 47.144531 31.789062 47.601562 32.578125 C 47.605469 32.605469 47.617188 32.625 47.632812 32.640625 Z M 47.632812 32.640625 " fill-opacity="1" fill-rule="nonzero"/><path fill="#db880e" d="M 47.496094 32.707031 C 47.09375 31.957031 46.9375 32.917969 46.273438 33.265625 C 45.605469 33.621094 44.683594 33.238281 45.082031 33.984375 C 45.484375 34.734375 46.351562 35.050781 47.015625 34.703125 C 47.6875 34.351562 47.902344 33.457031 47.496094 32.707031 Z M 47.496094 32.707031 " fill-opacity="1" fill-rule="nonzero"/><path fill="#f9aa41" d="M 47.382812 32.925781 C 47.0625 32.320312 46.9375 33.089844 46.402344 33.375 C 45.867188 33.65625 45.125 33.347656 45.445312 33.953125 C 45.769531 34.554688 46.46875 34.8125 47.003906 34.53125 C 47.535156 34.242188 47.707031 33.527344 47.382812 32.925781 Z M 47.382812 32.925781 " fill-opacity="1" fill-rule="nonzero"/><path fill="#000000" d="M 45.929688 32.472656 C 46.148438 32.355469 46.386719 32.34375 46.636719 32.4375 C 46.886719 32.527344 47.082031 32.699219 47.214844 32.949219 C 47.347656 33.195312 47.382812 33.449219 47.320312 33.707031 C 47.257812 33.96875 47.117188 34.15625 46.894531 34.273438 C 46.675781 34.390625 46.4375 34.402344 46.1875 34.308594 C 45.933594 34.21875 45.742188 34.046875 45.609375 33.796875 C 45.476562 33.550781 45.441406 33.296875 45.503906 33.039062 C 45.566406 32.78125 45.707031 32.589844 45.929688 32.472656 Z M 45.929688 32.472656 " fill-opacity="1" fill-rule="nonzero"/><path fill="#ffffff" d="M 46.015625 33.488281 C 46.015625 33.5625 45.988281 33.628906 45.9375 33.679688 C 45.882812 33.734375 45.816406 33.761719 45.738281 33.761719 C 45.664062 33.761719 45.597656 33.734375 45.542969 33.679688 C 45.492188 33.628906 45.464844 33.5625 45.464844 33.488281 C 45.464844 33.410156 45.492188 33.347656 45.542969 33.292969 C 45.597656 33.238281 45.664062 33.210938 45.738281 33.210938 C 45.816406 33.210938 45.882812 33.238281 45.9375 33.292969 C 45.988281 33.347656 46.015625 33.410156 46.015625 33.488281 Z M 46.015625 33.488281 " fill-opacity="1" fill-rule="nonzero"/><path fill="#ffffff" d="M 46.925781 33.652344 C 46.925781 33.726562 46.890625 33.761719 46.816406 33.761719 C 46.746094 33.761719 46.707031 33.726562 46.707031 33.652344 C 46.707031 33.582031 46.746094 33.542969 46.816406 33.542969 C 46.890625 33.542969 46.925781 33.582031 46.925781 33.652344 Z M 46.925781 33.652344 " fill-opacity="1" fill-rule="nonzero"/><path fill="#542502" d="M 47.121094 34.890625 C 46.359375 35.292969 45.375 34.925781 44.917969 34.078125 C 44.460938 33.226562 44.707031 32.210938 45.464844 31.808594 C 46.222656 31.40625 47.207031 31.773438 47.664062 32.621094 C 48.121094 33.46875 47.878906 34.488281 47.121094 34.890625 Z M 45.503906 31.878906 C 44.789062 32.257812 44.5625 33.226562 44.992188 34.035156 C 45.429688 34.84375 46.371094 35.191406 47.085938 34.8125 C 47.804688 34.4375 48.03125 33.464844 47.597656 32.65625 C 47.15625 31.851562 46.21875 31.5 45.503906 31.878906 Z M 45.503906 31.878906 " fill-opacity="1" fill-rule="nonzero"/><path fill="#000000" d="M 46.289062 30.277344 C 45.859375 30.019531 45.429688 29.890625 45.0625 29.890625 C 44.921875 29.890625 44.796875 29.90625 44.671875 29.945312 C 44.191406 30.085938 43.84375 30.550781 43.699219 31.265625 C 43.546875 31.980469 43.621094 32.863281 43.894531 33.695312 C 44.210938 34.644531 44.753906 35.460938 45.480469 36.058594 L 45.496094 36.070312 L 45.519531 36.070312 C 46.507812 36.003906 48.117188 34.839844 48.324219 33.359375 C 48.40625 32.757812 48.066406 31.964844 47.425781 31.234375 C 47.082031 30.84375 46.691406 30.515625 46.289062 30.277344 Z M 48.21875 33.339844 C 48.128906 33.980469 47.75 34.632812 47.144531 35.164062 C 46.625 35.621094 46.003906 35.929688 45.523438 35.96875 C 44.003906 34.703125 43.5 32.652344 43.789062 31.28125 C 43.933594 30.605469 44.25 30.164062 44.695312 30.03125 C 44.804688 30 44.929688 29.980469 45.050781 29.980469 C 45.746094 29.980469 46.640625 30.492188 47.34375 31.289062 C 47.972656 32.003906 48.296875 32.769531 48.21875 33.339844 Z M 48.21875 33.339844 " fill-opacity="1" fill-rule="nonzero"/><path fill="#dfaa28" d="M 46.71875 41.902344 C 46.476562 42.460938 46.171875 42.964844 45.824219 43.398438 C 45.824219 43.398438 45.824219 43.398438 45.824219 43.402344 C 45.644531 43.628906 45.449219 43.839844 45.253906 44.023438 C 44.71875 44.523438 44.148438 44.863281 43.648438 44.988281 C 43.308594 45.070312 43.007812 45.054688 42.765625 44.925781 C 42.292969 44.667969 42.667969 43.84375 42.644531 43.097656 C 42.621094 42.1875 42.285156 41.195312 42.183594 41.042969 C 41.515625 41.042969 39.792969 41.894531 39.777344 44.109375 C 39.761719 44.097656 39.746094 44.078125 39.726562 44.0625 C 39.1875 43.492188 38.4375 40.867188 39.613281 39.140625 C 40.453125 37.90625 42.03125 37.394531 43.421875 37.253906 C 44.042969 37.191406 44.625 37.195312 45.089844 37.25 C 45.75 36.96875 45.859375 36.554688 46.578125 37.003906 C 47.289062 37.453125 47.65625 39.6875 46.71875 41.902344 Z M 46.71875 41.902344 " fill-opacity="1" fill-rule="nonzero"/><path fill="#f2c664" d="M 42.160156 37.6875 C 42.734375 37.992188 42.414062 38.042969 41.578125 38.398438 C 40.738281 38.746094 39.109375 39.890625 39.429688 43.117188 C 38.949219 41.964844 38.519531 38.691406 42.160156 37.6875 Z M 42.160156 37.6875 " fill-opacity="1" fill-rule="nonzero"/><path fill="#c99217" d="M 46.71875 41.902344 C 46.476562 42.460938 46.171875 42.964844 45.824219 43.398438 C 45.824219 43.398438 45.824219 43.398438 45.824219 43.402344 C 45.632812 43.625 45.4375 43.832031 45.253906 44.023438 C 44.480469 44.8125 43.808594 45.296875 43.414062 45.109375 C 43.492188 45.066406 43.574219 45.027344 43.644531 44.984375 C 45.679688 43.847656 46.582031 41.453125 46.632812 39.929688 C 46.6875 38.347656 45.835938 37.746094 45.597656 37.980469 C 45.667969 38.320312 45.121094 39.5 44.441406 40.121094 C 43.765625 40.742188 42.953125 40.941406 42.175781 41.046875 C 41.503906 41.046875 39.785156 41.898438 39.769531 44.113281 C 39.753906 44.101562 39.734375 44.085938 39.71875 44.066406 C 39.167969 41.421875 41.179688 40.535156 42.867188 39.925781 C 44.421875 39.367188 44.929688 37.890625 43.414062 37.257812 C 44.035156 37.195312 44.617188 37.199219 45.082031 37.253906 C 45.738281 36.976562 45.847656 36.558594 46.570312 37.007812 C 47.289062 37.453125 47.65625 39.6875 46.71875 41.902344 Z M 46.71875 41.902344 " fill-opacity="1" fill-rule="nonzero"/><path fill="#000000" d="M 46.59375 36.957031 C 46.371094 36.816406 46.191406 36.75 46.035156 36.75 C 45.839844 36.75 45.6875 36.84375 45.507812 36.957031 C 45.386719 37.03125 45.253906 37.117188 45.078125 37.195312 C 44.835938 37.171875 44.570312 37.152344 44.292969 37.152344 C 43.402344 37.152344 42.496094 37.296875 41.738281 37.558594 C 40.765625 37.894531 40.039062 38.414062 39.566406 39.101562 C 38.859375 40.152344 38.898438 41.441406 38.984375 42.121094 C 39.117188 43.132812 39.476562 43.914062 39.746094 44.136719 L 39.824219 44.203125 L 39.824219 44.109375 C 39.835938 42.914062 40.347656 42.183594 40.765625 41.777344 C 41.253906 41.316406 41.816406 41.101562 42.15625 41.089844 C 42.269531 41.304688 42.574219 42.257812 42.59375 43.097656 C 42.605469 43.339844 42.566406 43.589844 42.53125 43.835938 C 42.460938 44.320312 42.398438 44.777344 42.742188 44.964844 C 42.890625 45.046875 43.0625 45.085938 43.253906 45.085938 C 44.292969 45.085938 45.929688 43.878906 46.757812 41.929688 C 47.1875 40.917969 47.382812 39.804688 47.3125 38.792969 C 47.25 37.898438 46.972656 37.199219 46.59375 36.957031 Z M 46.671875 41.882812 C 46.300781 42.753906 45.722656 43.550781 45.046875 44.136719 C 44.421875 44.675781 43.773438 44.984375 43.257812 44.984375 C 43.082031 44.984375 42.925781 44.945312 42.792969 44.875 C 42.507812 44.714844 42.566406 44.3125 42.632812 43.84375 C 42.667969 43.597656 42.703125 43.34375 42.695312 43.089844 C 42.671875 42.175781 42.335938 41.179688 42.226562 41.011719 L 42.214844 40.988281 L 42.1875 40.988281 C 41.835938 40.988281 41.222656 41.210938 40.703125 41.707031 C 40.28125 42.109375 39.773438 42.832031 39.730469 43.992188 C 39.210938 43.371094 38.523438 40.832031 39.65625 39.167969 C 40.859375 37.394531 43.515625 37.257812 44.296875 37.257812 C 44.574219 37.257812 44.839844 37.269531 45.085938 37.300781 L 45.097656 37.300781 L 45.109375 37.289062 C 45.300781 37.210938 45.441406 37.121094 45.566406 37.042969 C 45.738281 36.933594 45.875 36.851562 46.042969 36.851562 C 46.183594 36.851562 46.34375 36.90625 46.554688 37.042969 C 47.238281 37.476562 47.597656 39.699219 46.671875 41.882812 Z M 46.671875 41.882812 " fill-opacity="1" fill-rule="nonzero"/><path fill="#590606" d="M 45.464844 40.871094 C 45.003906 42.492188 44.039062 43.589844 43.242188 43.613281 C 43.320312 43.203125 43.378906 41.429688 42.996094 40.878906 C 43.699219 40.730469 44.308594 40.320312 44.421875 40.144531 C 44.53125 39.976562 45.445312 38.980469 45.621094 38.265625 C 45.714844 38.726562 45.804688 39.675781 45.464844 40.871094 Z M 45.464844 40.871094 " fill-opacity="1" fill-rule="nonzero"/><path fill="#000000" d="M 45.507812 40.882812 C 45.289062 41.65625 44.933594 42.363281 44.515625 42.871094 C 44.105469 43.371094 43.652344 43.652344 43.246094 43.664062 L 43.1875 43.667969 L 43.195312 43.609375 C 43.234375 43.417969 43.269531 42.855469 43.242188 42.246094 C 43.210938 41.625 43.117188 41.167969 42.972656 40.9375 C 42.964844 40.921875 42.953125 40.902344 42.9375 40.890625 L 43.042969 40.867188 C 43.050781 40.882812 43.066406 40.898438 43.074219 40.917969 C 43.410156 41.515625 43.375 43.074219 43.300781 43.570312 C 44.09375 43.492188 44.988281 42.347656 45.414062 40.871094 C 45.605469 40.191406 45.6875 39.523438 45.644531 38.867188 C 45.636719 38.679688 45.613281 38.527344 45.59375 38.398438 C 45.582031 38.324219 45.566406 38.257812 45.554688 38.207031 C 45.582031 38.128906 45.597656 38.050781 45.601562 37.996094 C 45.613281 38.035156 45.636719 38.109375 45.660156 38.214844 C 45.753906 38.632812 45.875 39.605469 45.507812 40.882812 Z M 45.507812 40.882812 " fill-opacity="1" fill-rule="nonzero"/><path fill="#000000" d="M 45.660156 38.195312 C 45.644531 38.253906 45.617188 38.320312 45.597656 38.386719 C 45.359375 39.015625 44.773438 39.941406 44.246094 40.378906 C 43.917969 40.660156 43.488281 40.8125 43.078125 40.914062 C 43.042969 40.921875 43.011719 40.929688 42.976562 40.9375 C 42.761719 40.984375 42.554688 41.015625 42.367188 41.046875 C 42.214844 41.070312 42.074219 41.089844 41.964844 41.121094 L 41.945312 41.023438 C 42.0625 41 42.207031 40.976562 42.351562 40.949219 C 42.910156 40.859375 43.667969 40.738281 44.183594 40.308594 C 44.488281 40.054688 44.832031 39.621094 45.132812 39.109375 C 45.335938 38.765625 45.488281 38.441406 45.558594 38.195312 C 45.585938 38.113281 45.601562 38.039062 45.605469 37.980469 C 45.617188 38.015625 45.636719 38.089844 45.660156 38.195312 Z M 45.660156 38.195312 " fill-opacity="1" fill-rule="nonzero"/><path fill="#593604" d="M 41.929688 39.054688 C 41.832031 39.074219 41.667969 39.167969 41.574219 39.359375 C 41.546875 39.410156 41.527344 39.46875 41.515625 39.535156 C 41.515625 39.179688 41.621094 38.605469 41.921875 38.671875 C 41.941406 38.675781 41.960938 38.683594 41.988281 38.699219 C 42.332031 38.875 42.050781 39.035156 41.929688 39.054688 Z M 41.929688 39.054688 " fill-opacity="1" fill-rule="nonzero"/><path fill="#774a0e" d="M 41.929688 39.054688 C 41.832031 39.074219 41.667969 39.167969 41.574219 39.359375 C 41.5625 39.347656 41.558594 39.332031 41.5625 39.3125 C 41.589844 39.171875 41.730469 38.992188 41.898438 38.929688 C 42.066406 38.867188 42.007812 38.820312 41.875 38.707031 L 41.921875 38.667969 C 41.941406 38.671875 41.960938 38.679688 41.988281 38.695312 C 42.332031 38.875 42.050781 39.035156 41.929688 39.054688 Z M 41.929688 39.054688 " fill-opacity="1" fill-rule="nonzero"/><path fill="#000000" d="M 42.003906 38.65625 C 41.957031 38.632812 41.910156 38.617188 41.871094 38.617188 C 41.566406 38.617188 41.464844 39.167969 41.464844 39.535156 L 41.464844 40.003906 L 41.558594 39.542969 C 41.621094 39.25 41.839844 39.117188 41.9375 39.101562 C 42.011719 39.089844 42.179688 39.019531 42.195312 38.894531 C 42.214844 38.808594 42.148438 38.726562 42.003906 38.65625 Z M 42.105469 38.882812 C 42.097656 38.9375 41.992188 38.992188 41.925781 39.007812 C 41.832031 39.023438 41.691406 39.097656 41.585938 39.246094 C 41.625 38.976562 41.71875 38.71875 41.875 38.71875 C 41.898438 38.71875 41.933594 38.726562 41.964844 38.742188 C 42.054688 38.792969 42.105469 38.84375 42.105469 38.882812 Z M 42.105469 38.882812 " fill-opacity="1" fill-rule="nonzero"/></svg>