<svg xmlns="http://www.w3.org/2000/svg" xmlns:xlink="http://www.w3.org/1999/xlink" width="100" zoomAndPan="magnify" viewBox="0 0 75 74.999997" height="100" preserveAspectRatio="xMidYMid meet" version="1.0"><defs><g/></defs><path stroke-linecap="butt" transform="matrix(0.226696, -0.0722272, 0.0722272, 0.226696, 4.761536, 31.811418)" fill="none" stroke-linejoin="miter" d="M 26.935356 27.575344 L 26.936431 48.718356 C 26.027993 49.514486 24.780388 50.185324 23.24553 50.730178 C 21.695028 51.270048 19.818929 51.533868 17.627892 51.542267 C 15.421212 51.545681 13.545406 51.051423 11.99549 50.075135 C 10.252181 49.002768 9.385876 47.503342 9.385917 45.556231 L 9.387711 26.188945 L 2.372988 26.194058 C 0.92803 24.131183 0.217759 21.871605 0.205906 19.421 C 0.215077 17.769728 0.470939 16.317671 1.004777 15.074798 C 1.533631 13.847569 2.201054 12.888494 2.98642 12.208233 L 34.067659 12.220242 C 34.645475 13.110817 35.122227 14.210429 35.507885 15.487792 C 35.893542 16.765155 36.087188 18.050267 36.083147 19.306856 C 36.088634 21.669277 35.566691 23.415644 34.522302 24.530314 C 33.477912 25.644984 32.078167 26.198424 30.307425 26.18565 L 21.501332 26.188648 C 21.435848 26.340096 21.406635 26.485869 21.408708 26.641611 C 21.413546 27.005007 21.613997 27.241184 22.041348 27.36011 C 22.479359 27.499664 23.420173 27.575408 24.868774 27.571701 Z M 26.935356 27.575344 " stroke="#d269e6" stroke-width="10.624103" stroke-opacity="1" stroke-miterlimit="4"/><path stroke-linecap="butt" transform="matrix(0.232634, -0.0498931, 0.0498931, 0.232634, 13.814688, 28.945589)" fill="none" stroke-linejoin="miter" d="M 21.610096 30.257165 C 21.621918 28.244736 21.531573 26.865258 21.355115 26.122176 C 21.166046 25.359597 20.842746 24.988014 20.356553 24.984488 C 20.053828 24.986729 19.778604 25.095615 19.550378 25.298538 C 19.590448 25.659751 19.638524 26.14022 19.730155 26.730779 C 19.80229 27.333948 19.845637 28.619389 19.844144 30.583659 L 19.846094 32.531877 C 19.836679 33.90675 19.810131 34.891747 19.759567 35.518975 C 19.692949 36.14276 19.646988 36.670226 19.60219 37.113986 C 19.586095 37.345613 19.566558 37.593293 19.550463 37.824921 C 19.792378 38.027927 20.05495 38.134615 20.357675 38.132375 C 20.843869 38.1359 21.161568 37.75067 21.35549 37.003066 C 21.533358 36.252019 21.610429 34.874864 21.622251 32.862435 Z M 20.413718 51.963694 C 16.855557 51.956187 13.571582 51.21829 10.5939 49.756889 C 7.61966 48.279435 5.216608 46.017749 3.397353 42.991328 C 1.581541 39.948853 0.664861 36.158899 0.66681 31.608855 C 0.65536 25.007389 2.649205 19.860274 6.619682 16.144569 C 10.139432 12.886311 14.689766 11.242768 20.228251 11.255211 C 26.272425 11.25857 31.044598 13.121627 34.55738 16.863878 C 38.089658 20.593519 39.837484 25.518837 39.843292 31.59856 C 39.832923 38.380051 37.951449 43.551267 34.179373 47.124818 C 30.76627 50.355574 26.174663 51.956683 20.413718 51.963694 Z M 20.413718 51.963694 " stroke="#d269e6" stroke-width="10.624103" stroke-opacity="1" stroke-miterlimit="4"/><path stroke-linecap="butt" transform="matrix(0.236446, -0.0264857, 0.0264857, 0.236446, 24.111278, 26.795351)" fill="none" stroke-linejoin="miter" d="M 13.29449 41.85573 C 13.856544 41.852606 14.137837 41.553701 14.125708 40.924556 C 9.697197 37.983427 6.319057 34.366963 3.991287 30.075163 C 1.647201 25.781535 0.342387 21.059139 0.0641826 15.873515 C 0.957407 14.536269 2.312697 13.498592 4.11008 12.791289 C 5.892974 12.065842 7.7517 11.695824 9.651797 11.693896 C 12.162896 11.694327 14.303679 12.198461 16.110434 13.177319 C 17.242717 16.195277 18.157543 19.089752 18.891198 21.831767 C 17.893764 26.164108 17.404119 28.323035 17.404119 28.323035 C 17.336762 28.629383 17.289376 28.904927 17.292766 29.169638 C 17.283096 29.845904 17.65627 30.201599 18.366995 30.198608 C 18.617882 29.433718 19.172924 27.13343 20.050264 23.283257 C 20.275963 22.300776 20.578157 20.930366 20.940531 19.170201 C 21.31922 17.411863 21.781583 15.349005 22.362079 12.968965 C 24.212198 12.085841 26.32663 11.645342 28.689057 11.64564 C 31.548275 11.635504 33.832114 12.33739 35.542401 13.734981 C 37.236373 15.130745 38.103047 17.127707 38.089823 19.753018 C 38.104512 23.603989 37.006058 27.36331 34.847066 31.003835 C 33.152897 33.886913 30.884146 36.589983 28.0771 39.084069 L 28.088169 49.014254 C 26.421048 50.033521 24.924663 50.708458 23.599015 51.039065 C 22.273366 51.369672 20.882587 51.544296 19.428504 51.546623 C 16.654522 51.533265 14.481107 51.025477 12.897426 49.972482 C 11.311918 48.935803 10.528252 47.377677 10.528284 45.312592 L 10.525757 40.025682 C 10.882616 40.37955 11.35003 40.778842 11.913513 41.205417 C 12.475169 41.648308 12.930056 41.864469 13.29449 41.85573 Z M 13.29449 41.85573 " stroke="#d269e6" stroke-width="10.624103" stroke-opacity="1" stroke-miterlimit="4"/><path stroke-linecap="butt" transform="matrix(0.237885, 0.0043176, -0.0043176, 0.237885, 37.747824, 25.589631)" fill="none" stroke-linejoin="miter" d="M 17.140395 40.051951 C 17.79522 39.941541 18.133983 39.606978 18.123853 39.048857 C 18.130138 38.490438 17.954664 37.869635 17.597428 37.186449 C 17.256311 36.486548 16.735518 35.839172 16.050871 35.21119 C 14.264935 33.617952 11.852806 32.807854 8.815077 32.813726 C 7.304272 32.808306 5.896725 33.063743 4.608555 33.563324 C 3.216559 32.866077 2.11259 31.753084 1.296649 30.224344 C 0.464292 28.695903 0.0569457 27.061224 0.0575991 25.287773 C 0.0559554 20.673578 1.978451 17.124649 5.841203 14.624272 C 9.135675 12.479045 13.221331 11.403226 18.065341 11.397411 C 21.677903 11.397527 24.722782 11.785622 27.183562 12.561995 C 29.644043 13.321953 31.665483 14.31977 33.230868 15.522913 C 33.681799 16.844808 33.920225 18.219822 33.913017 19.632135 C 33.922522 21.060566 33.73266 22.36125 33.343133 23.517771 C 32.970021 24.673994 32.412467 25.620095 31.685993 26.30653 C 31.003729 25.809871 29.779461 25.306628 27.996476 24.780684 C 26.213492 24.25474 24.58331 24.005176 23.12175 23.998861 C 21.660191 23.992547 20.676761 24.0925 20.187281 24.265591 C 19.698099 24.455098 19.456636 24.722212 19.447371 25.116478 C 19.450648 25.297046 19.486458 25.460604 19.538684 25.623863 C 20.241563 25.446899 21.142916 25.348435 22.243041 25.344889 C 26.151377 25.356057 29.353527 26.266761 31.817258 28.110428 C 34.714639 30.323901 36.170423 33.630887 36.168491 38.048098 C 36.173143 41.923306 34.606124 45.153789 31.450721 47.723431 C 28.035651 50.461993 23.462898 51.842226 17.715748 51.848012 C 14.5464 51.839853 11.799976 51.610548 9.475882 51.127266 C 7.152085 50.660401 4.887396 49.831206 2.68211 48.656098 C 1.16451 46.466844 0.418132 44.247171 0.42656 41.997378 C 0.418276 39.731468 1.189257 37.878353 2.738612 36.388788 C 4.271551 34.89952 6.179332 34.158803 8.429125 34.167231 C 10.695035 34.158947 12.526074 34.618335 13.971488 35.544503 C 15.400486 36.470969 16.462061 37.962409 17.140395 40.051951 Z M 17.140395 40.051951 " stroke="#d269e6" stroke-width="10.624103" stroke-opacity="1" stroke-miterlimit="4"/><path stroke-linecap="butt" transform="matrix(0.236441, 0.0265307, -0.0265307, 0.236441, 46.980581, 25.777581)" fill="none" stroke-linejoin="miter" d="M 37.68303 19.131413 L 37.682791 49.018034 C 35.425522 50.69213 32.547293 51.543766 29.044441 51.54031 C 26.335723 51.546872 24.192078 50.994397 22.613503 49.882884 C 20.95152 48.764209 20.108496 47.140614 20.117063 45.008436 L 20.110617 39.061578 L 22.259111 39.068315 C 23.06773 39.060186 23.584338 38.952655 23.792619 38.747553 C 24.017215 38.540619 24.109294 38.183345 24.121465 37.702869 L 14.671755 37.705859 C 14.6759 38.184505 14.765124 38.537957 14.937595 38.749899 C 15.126382 38.96001 15.55075 39.061082 16.24516 39.065768 L 18.524178 39.057859 L 18.51866 49.020676 C 16.978634 50.019533 15.518034 50.695578 14.135028 51.032494 C 12.752022 51.369411 11.334393 51.545002 9.896625 51.541122 C 7.187908 51.547684 5.044262 50.995209 3.465688 49.883696 C 1.787389 48.766852 0.960681 47.141425 0.969248 45.009248 L 0.965826 15.089995 C 1.999906 13.99922 3.291697 13.143865 4.828544 12.558391 C 6.365391 11.972917 7.951508 11.679294 9.619525 11.67386 C 12.047215 11.665789 14.098459 12.278196 15.785912 13.476618 C 17.607713 14.841697 18.528975 16.72085 18.518899 19.134055 L 18.524701 24.486227 L 22.341212 24.487529 C 22.34789 23.958106 22.242351 23.606485 22.055395 23.412689 C 21.868439 23.218894 21.560111 23.121322 21.130413 23.119975 L 20.124174 23.133757 L 20.115472 15.105499 C 21.164037 13.996578 22.439512 13.143053 23.976359 12.557579 C 25.513207 11.972105 27.115639 11.676651 28.783656 11.671217 C 31.19503 11.664977 33.26259 12.275553 34.933727 13.475806 C 36.771843 14.839054 37.67679 16.720039 37.68303 19.131413 Z M 37.68303 19.131413 " stroke="#d269e6" stroke-width="10.624103" stroke-opacity="1" stroke-miterlimit="4"/><path stroke-linecap="butt" transform="matrix(0.232604, 0.0500347, -0.0500347, 0.232604, 56.993994, 26.934414)" fill="none" stroke-linejoin="miter" d="M 21.615711 30.260615 C 21.618715 28.244741 21.524755 26.871086 21.34643 26.120147 C 21.168104 25.369209 20.834119 24.987625 20.363979 24.987994 C 20.061252 24.985938 19.782694 25.096238 19.540903 25.299391 C 19.58476 25.659416 19.636734 26.13525 19.732381 26.736037 C 19.811976 27.340278 19.853118 28.624533 19.839756 30.592255 L 19.838992 32.540473 C 19.845792 33.899289 19.808736 34.898081 19.756472 35.513892 C 19.688157 36.133155 19.650731 36.661806 19.612093 37.10675 C 19.580176 37.348726 19.564309 37.587249 19.548443 37.825772 C 19.776793 38.028556 20.052082 38.137275 20.354809 38.139331 C 20.841 38.135509 21.164073 37.763729 21.352678 37.001036 C 21.528684 36.257846 21.618189 34.878314 21.621193 32.862439 Z M 20.422994 51.962564 C 16.845335 51.959639 13.578994 51.218005 10.595322 49.760617 C 7.624249 48.283726 5.224761 46.028933 3.393405 42.980189 C 1.565502 39.947496 0.666968 36.1607 0.66225 31.610658 C 0.65363 25.01264 2.652847 19.863602 6.608294 16.157851 C 10.135218 12.88015 14.687421 11.245991 20.229349 11.246227 C 26.276973 11.25524 31.044058 13.118301 34.569612 16.860606 C 38.075662 20.590313 39.840838 25.51738 39.842183 31.613156 C 39.837177 38.382041 37.960674 43.555063 34.193172 47.119624 C 30.755649 50.344507 26.167891 51.969521 20.422994 51.962564 Z M 20.422994 51.962564 " stroke="#d269e6" stroke-width="10.624103" stroke-opacity="1" stroke-miterlimit="4"/><path stroke-linecap="butt" transform="matrix(0.226674, 0.0722962, -0.0722962, 0.226674, 67.237592, 29.20652)" fill="none" stroke-linejoin="miter" d="M 17.775556 30.814837 C 17.847425 30.87808 18.080701 30.907075 18.45974 30.906813 C 18.843768 30.922193 19.136647 30.75985 19.332713 30.456056 C 19.533768 30.167904 19.633696 29.670746 19.642474 28.995864 L 19.635915 26.705986 C 19.629727 25.98418 19.548293 25.458701 19.380962 25.15018 C 19.21363 24.841659 18.924802 24.692518 18.545763 24.69278 C 18.146093 24.682389 17.885848 24.730927 17.739408 24.812098 C 17.753699 24.910937 17.772304 25.077332 17.763939 25.32126 Z M 18.528094 44.412808 L 18.514919 49.018184 C 17.648547 49.759794 16.394509 50.366555 14.789076 50.84413 C 13.194297 51.301075 11.514032 51.544024 9.774577 51.547359 C 7.292684 51.546229 5.258476 51.057656 3.661298 50.102271 C 1.863479 49.004085 0.95495 47.398239 0.961331 45.311028 L 0.96934 16.753623 C 0.956812 16.120003 1.401533 15.461176 2.266555 14.823394 C 3.147218 14.180623 4.343678 13.609459 5.897872 13.079295 C 9.193961 11.9591 12.98113 11.406059 17.233761 11.393876 C 23.095725 11.402628 27.786021 12.870744 31.268377 15.792562 C 34.750732 18.714379 36.506422 22.652192 36.499173 27.600335 C 36.502576 32.527847 34.920806 36.375516 31.780156 39.117723 C 28.755337 41.736821 24.548391 43.026897 19.189925 43.029887 C 17.964621 43.024334 16.647492 42.892971 15.259844 42.594538 C 13.872197 42.296105 12.930469 42.04501 12.450303 41.836266 C 12.292535 41.989982 12.206636 42.20694 12.208249 42.482151 C 12.210385 43.515442 14.310123 44.155443 18.528094 44.412808 Z M 18.528094 44.412808 " stroke="#d269e6" stroke-width="10.624103" stroke-opacity="1" stroke-miterlimit="4"/><g fill="#ffa5f0" fill-opacity="1"><g transform="translate(8.445121, 43.372939)"><g><path d="M 4.421875 -7.25 L 5.9375 -2.453125 C 5.789062 -2.203125 5.5625 -1.960938 5.25 -1.734375 C 4.9375 -1.503906 4.53125 -1.304688 4.03125 -1.140625 C 3.53125 -0.984375 3.070312 -0.960938 2.65625 -1.078125 C 2.175781 -1.179688 1.867188 -1.457031 1.734375 -1.90625 L 0.328125 -6.296875 L -1.265625 -5.796875 C -1.734375 -6.160156 -2.054688 -6.617188 -2.234375 -7.171875 C -2.359375 -7.554688 -2.40625 -7.90625 -2.375 -8.21875 C -2.34375 -8.53125 -2.257812 -8.796875 -2.125 -9.015625 L 4.9375 -11.265625 C 5.125 -11.085938 5.304688 -10.867188 5.484375 -10.609375 C 5.671875 -10.359375 5.804688 -10.085938 5.890625 -9.796875 C 6.066406 -9.265625 6.070312 -8.832031 5.90625 -8.5 C 5.75 -8.164062 5.472656 -7.9375 5.078125 -7.8125 L 3.078125 -7.171875 C 3.078125 -7.140625 3.082031 -7.101562 3.09375 -7.0625 C 3.125 -6.988281 3.191406 -6.953125 3.296875 -6.953125 C 3.410156 -6.953125 3.628906 -7.003906 3.953125 -7.109375 Z M 4.421875 -7.25 "/></g></g></g><g fill="#ffa5f0" fill-opacity="1"><g transform="translate(16.359237, 40.80994)"><g><path d="M 4 -5.90625 C 3.894531 -6.375 3.800781 -6.6875 3.71875 -6.84375 C 3.644531 -7.007812 3.550781 -7.082031 3.4375 -7.0625 C 3.363281 -7.050781 3.304688 -7.015625 3.265625 -6.953125 C 3.296875 -6.867188 3.332031 -6.757812 3.375 -6.625 C 3.414062 -6.488281 3.488281 -6.191406 3.59375 -5.734375 L 3.6875 -5.28125 C 3.757812 -4.957031 3.800781 -4.722656 3.8125 -4.578125 C 3.832031 -4.441406 3.851562 -4.320312 3.875 -4.21875 C 3.875 -4.144531 3.878906 -4.085938 3.890625 -4.046875 C 3.953125 -4.015625 4.019531 -4.003906 4.09375 -4.015625 C 4.207031 -4.035156 4.265625 -4.132812 4.265625 -4.3125 C 4.273438 -4.5 4.226562 -4.828125 4.125 -5.296875 Z M 4.796875 -0.78125 C 3.960938 -0.601562 3.160156 -0.613281 2.390625 -0.8125 C 1.628906 -1.019531 0.960938 -1.425781 0.390625 -2.03125 C -0.179688 -2.644531 -0.582031 -3.476562 -0.8125 -4.53125 C -1.144531 -6.070312 -0.9375 -7.375 -0.1875 -8.4375 C 0.457031 -9.375 1.425781 -9.984375 2.71875 -10.265625 C 4.125 -10.566406 5.328125 -10.367188 6.328125 -9.671875 C 7.335938 -8.972656 7.992188 -7.910156 8.296875 -6.484375 C 8.628906 -4.921875 8.453125 -3.628906 7.765625 -2.609375 C 7.117188 -1.679688 6.128906 -1.070312 4.796875 -0.78125 Z M 4.796875 -0.78125 "/></g></g></g><g fill="#ffa5f0" fill-opacity="1"><g transform="translate(25.462049, 38.854081)"><g><path d="M 2.90625 -2.5 C 3.039062 -2.519531 3.097656 -2.601562 3.078125 -2.75 C 1.941406 -3.34375 1.039062 -4.113281 0.375 -5.0625 C -0.28125 -6.007812 -0.710938 -7.09375 -0.921875 -8.3125 C -0.734375 -8.644531 -0.4375 -8.921875 -0.03125 -9.140625 C 0.363281 -9.367188 0.785156 -9.503906 1.234375 -9.546875 C 1.828125 -9.617188 2.347656 -9.554688 2.796875 -9.359375 C 3.148438 -8.679688 3.453125 -8.023438 3.703125 -7.390625 C 3.578125 -6.335938 3.515625 -5.8125 3.515625 -5.8125 C 3.492188 -5.738281 3.488281 -5.675781 3.5 -5.625 C 3.519531 -5.457031 3.617188 -5.382812 3.796875 -5.40625 C 3.828125 -5.59375 3.894531 -6.148438 4 -7.078125 C 4.03125 -7.328125 4.066406 -7.660156 4.109375 -8.078125 C 4.148438 -8.503906 4.210938 -9.003906 4.296875 -9.578125 C 4.703125 -9.847656 5.179688 -10.015625 5.734375 -10.078125 C 6.410156 -10.148438 6.96875 -10.046875 7.40625 -9.765625 C 7.84375 -9.484375 8.097656 -9.03125 8.171875 -8.40625 C 8.273438 -7.5 8.125 -6.582031 7.71875 -5.65625 C 7.382812 -4.9375 6.921875 -4.238281 6.328125 -3.5625 L 6.59375 -1.21875 C 6.226562 -0.925781 5.890625 -0.722656 5.578125 -0.609375 C 5.273438 -0.503906 4.953125 -0.429688 4.609375 -0.390625 C 3.960938 -0.316406 3.4375 -0.378906 3.03125 -0.578125 C 2.625 -0.785156 2.390625 -1.132812 2.328125 -1.625 L 2.1875 -2.875 C 2.289062 -2.800781 2.414062 -2.71875 2.5625 -2.625 C 2.707031 -2.539062 2.820312 -2.5 2.90625 -2.5 Z M 2.90625 -2.5 "/></g></g></g><g fill="#ffa5f0" fill-opacity="1"><g transform="translate(34.306733, 37.951153)"><g/></g></g><g fill="#ffa5f0" fill-opacity="1"><g transform="translate(37.527627, 37.721781)"><g><path d="M 4.125 -2.53125 C 4.28125 -2.550781 4.359375 -2.628906 4.359375 -2.765625 C 4.367188 -2.898438 4.332031 -3.046875 4.25 -3.203125 C 4.164062 -3.367188 4.046875 -3.53125 3.890625 -3.6875 C 3.472656 -4.070312 2.898438 -4.273438 2.171875 -4.296875 C 1.816406 -4.296875 1.484375 -4.242188 1.171875 -4.140625 C 0.835938 -4.304688 0.578125 -4.570312 0.390625 -4.9375 C 0.203125 -5.300781 0.113281 -5.695312 0.125 -6.125 C 0.144531 -7.21875 0.617188 -8.050781 1.546875 -8.625 C 2.335938 -9.125 3.3125 -9.363281 4.46875 -9.34375 C 5.332031 -9.332031 6.050781 -9.226562 6.625 -9.03125 C 7.207031 -8.832031 7.6875 -8.585938 8.0625 -8.296875 C 8.164062 -7.984375 8.210938 -7.65625 8.203125 -7.3125 C 8.203125 -6.976562 8.148438 -6.671875 8.046875 -6.390625 C 7.953125 -6.117188 7.820312 -5.898438 7.65625 -5.734375 C 7.488281 -5.859375 7.191406 -5.984375 6.765625 -6.109375 C 6.347656 -6.242188 5.960938 -6.3125 5.609375 -6.3125 C 5.265625 -6.320312 5.03125 -6.304688 4.90625 -6.265625 C 4.789062 -6.234375 4.734375 -6.171875 4.734375 -6.078125 C 4.734375 -6.035156 4.742188 -6 4.765625 -5.96875 C 4.929688 -6 5.144531 -6.015625 5.40625 -6.015625 C 6.332031 -5.992188 7.085938 -5.757812 7.671875 -5.3125 C 8.347656 -4.769531 8.679688 -3.972656 8.671875 -2.921875 C 8.648438 -2.003906 8.257812 -1.242188 7.5 -0.640625 C 6.675781 -0.00390625 5.582031 0.300781 4.21875 0.28125 C 3.457031 0.269531 2.800781 0.203125 2.25 0.078125 C 1.695312 -0.046875 1.164062 -0.253906 0.65625 -0.546875 C 0.300781 -1.078125 0.125 -1.609375 0.125 -2.140625 C 0.132812 -2.679688 0.328125 -3.125 0.703125 -3.46875 C 1.085938 -3.8125 1.546875 -3.976562 2.078125 -3.96875 C 2.617188 -3.957031 3.054688 -3.835938 3.390625 -3.609375 C 3.722656 -3.390625 3.96875 -3.03125 4.125 -2.53125 Z M 4.125 -2.53125 "/></g></g></g><g fill="#ffa5f0" fill-opacity="1"><g transform="translate(45.627517, 37.836055)"><g><path d="M 9.75 -6.53125 L 8.953125 0.53125 C 8.390625 0.863281 7.6875 0.984375 6.84375 0.890625 C 6.21875 0.816406 5.726562 0.628906 5.375 0.328125 C 5.007812 0.015625 4.851562 -0.382812 4.90625 -0.875 L 5.0625 -2.296875 L 5.578125 -2.234375 C 5.773438 -2.210938 5.898438 -2.222656 5.953125 -2.265625 C 6.003906 -2.304688 6.039062 -2.382812 6.0625 -2.5 L 3.84375 -2.75 C 3.820312 -2.632812 3.828125 -2.550781 3.859375 -2.5 C 3.898438 -2.445312 3.992188 -2.410156 4.140625 -2.390625 L 4.6875 -2.34375 L 4.421875 0.015625 C 4.035156 0.222656 3.675781 0.347656 3.34375 0.390625 C 3.007812 0.429688 2.671875 0.429688 2.328125 0.390625 C 1.679688 0.316406 1.191406 0.128906 0.859375 -0.171875 C 0.492188 -0.484375 0.335938 -0.882812 0.390625 -1.375 L 1.1875 -8.46875 C 1.457031 -8.695312 1.78125 -8.859375 2.15625 -8.953125 C 2.539062 -9.054688 2.929688 -9.085938 3.328125 -9.046875 C 3.898438 -8.972656 4.367188 -8.773438 4.734375 -8.453125 C 5.117188 -8.085938 5.28125 -7.617188 5.21875 -7.046875 L 5.078125 -5.78125 L 5.984375 -5.671875 C 5.992188 -5.796875 5.976562 -5.882812 5.9375 -5.9375 C 5.90625 -5.988281 5.835938 -6.019531 5.734375 -6.03125 L 5.484375 -6.0625 L 5.703125 -7.96875 C 5.984375 -8.1875 6.3125 -8.34375 6.6875 -8.4375 C 7.070312 -8.539062 7.457031 -8.570312 7.84375 -8.53125 C 8.425781 -8.46875 8.898438 -8.273438 9.265625 -7.953125 C 9.648438 -7.578125 9.8125 -7.101562 9.75 -6.53125 Z M 9.75 -6.53125 "/></g></g></g><g fill="#ffa5f0" fill-opacity="1"><g transform="translate(54.442224, 38.797214)"><g><path d="M 6.0625 -3.75 C 6.164062 -4.21875 6.210938 -4.539062 6.203125 -4.71875 C 6.203125 -4.894531 6.144531 -5 6.03125 -5.03125 C 5.957031 -5.039062 5.890625 -5.03125 5.828125 -5 C 5.828125 -4.90625 5.816406 -4.785156 5.796875 -4.640625 C 5.785156 -4.503906 5.726562 -4.207031 5.625 -3.75 L 5.53125 -3.296875 C 5.46875 -2.972656 5.414062 -2.742188 5.375 -2.609375 C 5.332031 -2.472656 5.296875 -2.351562 5.265625 -2.25 C 5.234375 -2.1875 5.210938 -2.132812 5.203125 -2.09375 C 5.242188 -2.03125 5.300781 -1.992188 5.375 -1.984375 C 5.488281 -1.953125 5.582031 -2.019531 5.65625 -2.1875 C 5.738281 -2.351562 5.832031 -2.671875 5.9375 -3.140625 Z M 4.703125 1.25 C 3.867188 1.070312 3.140625 0.734375 2.515625 0.234375 C 1.898438 -0.253906 1.457031 -0.894531 1.1875 -1.6875 C 0.914062 -2.488281 0.894531 -3.414062 1.125 -4.46875 C 1.457031 -6.007812 2.179688 -7.113281 3.296875 -7.78125 C 4.265625 -8.351562 5.394531 -8.5 6.6875 -8.21875 C 8.09375 -7.914062 9.109375 -7.242188 9.734375 -6.203125 C 10.367188 -5.160156 10.535156 -3.925781 10.234375 -2.5 C 9.898438 -0.9375 9.203125 0.164062 8.140625 0.8125 C 7.179688 1.394531 6.035156 1.539062 4.703125 1.25 Z M 4.703125 1.25 "/></g></g></g><g fill="#ffa5f0" fill-opacity="1"><g transform="translate(63.550487, 40.766919)"><g><path d="M 5.484375 -3.28125 C 5.503906 -3.269531 5.554688 -3.25 5.640625 -3.21875 C 5.722656 -3.195312 5.796875 -3.210938 5.859375 -3.265625 C 5.929688 -3.316406 5.992188 -3.414062 6.046875 -3.5625 L 6.203125 -4.09375 C 6.265625 -4.257812 6.285156 -4.382812 6.265625 -4.46875 C 6.242188 -4.550781 6.1875 -4.601562 6.09375 -4.625 C 6.007812 -4.65625 5.945312 -4.664062 5.90625 -4.65625 C 5.914062 -4.632812 5.910156 -4.597656 5.890625 -4.546875 Z M 4.671875 -0.140625 L 4.34375 0.890625 C 4.09375 1.003906 3.769531 1.050781 3.375 1.03125 C 2.976562 1.019531 2.582031 0.953125 2.1875 0.828125 C 1.625 0.648438 1.191406 0.394531 0.890625 0.0625 C 0.566406 -0.3125 0.476562 -0.738281 0.625 -1.21875 L 2.703125 -7.6875 C 2.742188 -7.832031 2.882812 -7.945312 3.125 -8.03125 C 3.375 -8.113281 3.695312 -8.164062 4.09375 -8.1875 C 4.90625 -8.1875 5.796875 -8.03125 6.765625 -7.71875 C 8.097656 -7.289062 9.054688 -6.617188 9.640625 -5.703125 C 10.222656 -4.796875 10.332031 -3.78125 9.96875 -2.65625 C 9.613281 -1.539062 8.976562 -0.785156 8.0625 -0.390625 C 7.1875 -0.015625 6.140625 -0.0195312 4.921875 -0.40625 C 4.648438 -0.5 4.363281 -0.628906 4.0625 -0.796875 C 3.769531 -0.972656 3.582031 -1.097656 3.5 -1.171875 C 3.4375 -1.148438 3.398438 -1.109375 3.390625 -1.046875 C 3.304688 -0.804688 3.734375 -0.503906 4.671875 -0.140625 Z M 4.671875 -0.140625 "/></g></g></g></svg>