<svg xmlns="http://www.w3.org/2000/svg" xmlns:xlink="http://www.w3.org/1999/xlink" width="100" zoomAndPan="magnify" viewBox="0 0 75 74.999997" height="100" preserveAspectRatio="xMidYMid meet" version="1.0"><defs><clipPath id="e3ce9bf725"><path d="M 14.335938 19 L 24 19 L 24 28 L 14.335938 28 Z M 14.335938 19 " clip-rule="nonzero"/></clipPath><clipPath id="9eabecbc30"><path d="M 46 28 L 65.335938 28 L 65.335938 43 L 46 43 Z M 46 28 " clip-rule="nonzero"/></clipPath><clipPath id="8be06aac91"><path d="M 23 34 L 52 34 L 52 63.75 L 23 63.75 Z M 23 34 " clip-rule="nonzero"/></clipPath></defs><g clip-path="url(#e3ce9bf725)"><path fill="#1c1d29" d="M 16.695312 19.691406 C 16.78125 23.457031 19.675781 25.210938 23.816406 26.082031 C 23.453125 26.757812 22.394531 27.765625 21.292969 27.503906 C 18.8125 26.90625 14.722656 24.175781 14.335938 21.421875 C 15.179688 21.15625 15.722656 20.636719 16.695312 19.691406 Z M 16.695312 19.691406 " fill-opacity="1" fill-rule="evenodd"/></g><path fill="#1c1d29" d="M 18.636719 15.082031 C 19.089844 18.628906 23.320312 20.265625 23.375 25.726562 C 23.386719 27.0625 22.171875 27.742188 21.132812 27.75 C 22.914062 21.3125 16.824219 21.160156 15.378906 16.507812 C 16.519531 16.457031 17.710938 15.972656 18.636719 15.082031 Z M 18.636719 15.082031 " fill-opacity="1" fill-rule="evenodd"/><path fill="#1c1d29" d="M 21.046875 51.519531 C 23.203125 52.957031 25.476562 51.609375 27.792969 49.03125 C 28.011719 49.558594 28.113281 50.710938 27.480469 51.378906 C 26.046875 52.898438 22.703125 54.699219 20.984375 53.875 C 21.203125 53.175781 21.152344 52.582031 21.046875 51.519531 Z M 21.046875 51.519531 " fill-opacity="1" fill-rule="evenodd"/><path fill="#1c1d29" d="M 20.898438 45.773438 C 22.519531 47.707031 25.714844 46.484375 27.816406 49.8125 C 28.328125 50.621094 27.847656 51.683594 27.21875 52.234375 C 25.863281 47.34375 22.097656 50.460938 19.453125 48.367188 C 20.136719 47.734375 20.679688 46.808594 20.898438 45.773438 Z M 20.898438 45.773438 " fill-opacity="1" fill-rule="evenodd"/><g clip-path="url(#9eabecbc30)"><path fill="#1c1d29" d="M 60.4375 30.207031 C 58.636719 30.316406 56.71875 30.65625 54.910156 31.183594 C 53.210938 31.6875 51.609375 32.355469 50.296875 33.175781 C 48.550781 34.417969 47.855469 37.316406 47.921875 39.339844 C 47.941406 39.867188 48.011719 40.324219 48.132812 40.652344 C 48.195312 40.824219 48.238281 40.929688 48.246094 40.929688 C 48.257812 40.933594 48.285156 40.863281 48.425781 40.722656 C 50.089844 39.027344 51.925781 37.640625 53.882812 36.488281 C 55.832031 35.34375 57.914062 34.425781 60.074219 33.660156 C 61.542969 33.132812 62.53125 32.667969 63.140625 32.214844 C 63.601562 31.878906 63.792969 31.582031 63.804688 31.308594 L 63.804688 31.226562 C 63.789062 31.03125 63.695312 30.824219 63.453125 30.652344 C 63.09375 30.398438 62.472656 30.21875 61.460938 30.1875 C 61.160156 30.175781 60.820312 30.179688 60.4375 30.207031 Z M 54.488281 29.710938 C 56.40625 29.144531 58.4375 28.789062 60.347656 28.675781 C 60.761719 28.648438 61.148438 28.644531 61.507812 28.65625 C 62.847656 28.699219 63.75 28.992188 64.328125 29.398438 C 65.027344 29.886719 65.296875 30.523438 65.332031 31.140625 C 65.335938 31.203125 65.335938 31.277344 65.332031 31.351562 C 65.308594 32.117188 64.929688 32.804688 64.046875 33.457031 C 63.316406 33.996094 62.199219 34.535156 60.585938 35.109375 C 58.519531 35.847656 56.53125 36.722656 54.664062 37.820312 C 52.808594 38.910156 51.078125 40.210938 49.519531 41.796875 C 48.9375 42.390625 48.363281 42.558594 47.828125 42.402344 C 47.316406 42.253906 46.9375 41.816406 46.703125 41.183594 C 46.527344 40.707031 46.421875 40.085938 46.402344 39.386719 C 46.320312 36.988281 47.207031 33.507812 49.410156 31.929688 C 49.433594 31.914062 49.460938 31.894531 49.488281 31.878906 C 50.910156 30.980469 52.648438 30.25 54.488281 29.710938 Z M 54.488281 29.710938 " fill-opacity="1" fill-rule="nonzero"/></g><path fill="#384357" d="M 60.390625 29.441406 C 56.777344 29.660156 52.691406 30.769531 49.894531 32.523438 C 46.230469 35.078125 46.585938 43.691406 48.976562 41.253906 C 52.195312 37.972656 56.109375 35.882812 60.328125 34.378906 C 63.414062 33.277344 64.535156 32.367188 64.566406 31.324219 C 64.597656 30.371094 63.808594 29.230469 60.390625 29.441406 Z M 60.390625 29.441406 " fill-opacity="1" fill-rule="evenodd"/><path fill="#263042" d="M 58.460938 29.632812 C 55.523438 30.027344 51.761719 31.15625 49.894531 32.523438 C 46.230469 35.078125 46.585938 43.691406 48.976562 41.253906 C 51.6875 38.492188 54.886719 36.574219 58.351562 35.136719 C 55.675781 34.761719 56.210938 30.578125 58.460938 29.632812 Z M 58.460938 29.632812 " fill-opacity="1" fill-rule="evenodd"/><g clip-path="url(#8be06aac91)"><path fill="#1c1d29" d="M 28.425781 38.722656 C 27.476562 40.210938 26.78125 42.050781 26.695312 44.179688 C 26.617188 45.976562 26.972656 47.984375 27.96875 50.160156 C 28.070312 50.390625 28.054688 50.644531 27.941406 50.847656 C 27.324219 51.984375 25.949219 55.242188 25.195312 58.019531 C 24.75 59.664062 24.519531 61.070312 24.816406 61.550781 C 25.023438 61.882812 25.785156 61.527344 26.550781 61.042969 C 27.371094 60.527344 28.195312 59.816406 28.664062 59.410156 L 28.921875 59.1875 L 28.96875 59.152344 C 29.394531 58.796875 29.769531 58.492188 30.089844 58.238281 C 30.445312 57.960938 30.808594 57.679688 31.179688 57.398438 C 31.511719 57.152344 31.96875 57.214844 32.226562 57.53125 C 32.917969 58.3125 33.539062 58.78125 34.070312 59.015625 C 34.574219 59.238281 34.949219 59.234375 35.171875 59.097656 C 35.433594 58.945312 35.566406 58.621094 35.605469 58.144531 C 35.660156 57.488281 35.550781 56.605469 35.359375 55.515625 C 35.289062 55.128906 35.523438 54.753906 35.894531 54.644531 C 37.09375 54.167969 38.25 53.902344 39.480469 53.78125 C 40.710938 53.660156 42.003906 53.671875 43.484375 53.761719 C 43.886719 53.785156 44.195312 54.117188 44.203125 54.507812 C 44.320312 56.714844 44.664062 58.457031 45.15625 59.660156 C 45.578125 60.695312 46.058594 61.261719 46.527344 61.273438 L 46.53125 61.273438 C 46.621094 61.273438 46.707031 61.265625 46.796875 61.246094 C 47.710938 61.039062 48.566406 59.785156 49.226562 58.15625 C 49.941406 56.390625 50.386719 54.230469 50.441406 52.386719 C 50.464844 51.601562 50.410156 50.882812 50.28125 50.289062 C 50.175781 49.824219 49.867188 49.488281 49.449219 49.273438 C 48.851562 48.960938 48.058594 48.851562 47.273438 48.886719 C 46.851562 48.90625 46.496094 48.582031 46.476562 48.160156 C 46.472656 48.09375 46.480469 48.023438 46.496094 47.960938 C 46.824219 46.1875 47.300781 44.59375 47.894531 43.097656 C 48.457031 41.675781 49.128906 40.355469 49.875 39.0625 C 49.785156 38.652344 49.421875 38.257812 48.851562 37.890625 C 47.839844 37.238281 46.269531 36.738281 44.433594 36.402344 C 42.550781 36.058594 40.402344 35.902344 38.289062 35.933594 C 33.839844 36 29.597656 36.890625 28.425781 38.722656 Z M 25.167969 44.117188 C 25.273438 41.683594 26.066406 39.582031 27.144531 37.890625 C 28.617188 35.585938 33.378906 34.472656 38.269531 34.394531 C 40.480469 34.359375 42.722656 34.53125 44.703125 34.886719 C 46.730469 35.253906 48.492188 35.828125 49.675781 36.59375 C 50.753906 37.285156 51.394531 38.152344 51.417969 39.199219 C 51.421875 39.34375 51.390625 39.488281 51.316406 39.617188 C 50.550781 40.921875 49.875 42.246094 49.3125 43.660156 C 48.851562 44.820312 48.464844 46.042969 48.175781 47.375 C 48.886719 47.433594 49.578125 47.605469 50.164062 47.910156 C 50.960938 48.332031 51.558594 48.992188 51.773438 49.949219 C 51.9375 50.667969 52 51.515625 51.972656 52.429688 C 51.917969 54.445312 51.433594 56.804688 50.652344 58.730469 C 49.816406 60.792969 48.605469 62.410156 47.140625 62.738281 C 46.933594 62.785156 46.71875 62.804688 46.5 62.800781 L 46.492188 62.800781 C 45.371094 62.769531 44.417969 61.875 43.746094 60.238281 C 43.246094 59.011719 42.882812 57.324219 42.722656 55.253906 C 41.59375 55.207031 40.582031 55.207031 39.632812 55.304688 C 38.71875 55.394531 37.851562 55.574219 36.972656 55.878906 C 37.117188 56.8125 37.1875 57.601562 37.136719 58.269531 C 37.050781 59.261719 36.699219 59.980469 35.953125 60.421875 C 35.332031 60.792969 34.464844 60.871094 33.457031 60.421875 C 32.878906 60.164062 32.238281 59.722656 31.554688 59.042969 C 31.386719 59.171875 31.21875 59.304688 31.039062 59.453125 C 30.644531 59.761719 30.28125 60.058594 29.945312 60.335938 L 29.898438 60.378906 C 29.777344 60.480469 29.726562 60.523438 29.660156 60.582031 C 29.164062 61.007812 28.296875 61.757812 27.359375 62.34375 C 25.921875 63.253906 24.378906 63.722656 23.527344 62.363281 C 22.964844 61.460938 23.175781 59.628906 23.71875 57.621094 C 24.4375 54.976562 25.71875 51.878906 26.429688 50.453125 C 25.4375 48.164062 25.082031 46.039062 25.167969 44.117188 Z M 25.167969 44.117188 " fill-opacity="1" fill-rule="nonzero"/></g><path fill="#384357" d="M 27.785156 38.308594 C 25.921875 41.226562 24.972656 45.433594 27.269531 50.476562 C 26.226562 52.40625 23.066406 60.1875 24.171875 61.957031 C 25.207031 63.617188 28.621094 60.441406 29.410156 59.785156 C 30.203125 59.121094 30.941406 58.539062 31.636719 58.023438 C 33.367188 59.988281 34.78125 60.222656 35.558594 59.761719 C 36.574219 59.160156 36.519531 57.679688 36.109375 55.386719 C 38.414062 54.460938 40.550781 54.359375 43.441406 54.53125 C 43.6875 59.234375 44.949219 61.996094 46.507812 62.042969 C 49.660156 62.128906 51.882812 53.953125 51.023438 50.128906 C 50.671875 48.5625 48.902344 48.046875 47.238281 48.128906 C 47.878906 44.664062 49.09375 41.902344 50.652344 39.238281 C 50.578125 34.4375 30.8125 33.5625 27.785156 38.308594 Z M 27.785156 38.308594 " fill-opacity="1" fill-rule="evenodd"/><path fill="#263042" d="M 43.746094 57.367188 C 44.257812 60.324219 45.292969 62.007812 46.507812 62.042969 C 48.082031 62.085938 49.425781 60.066406 50.269531 57.550781 C 48.273438 59.816406 45.519531 60.175781 43.746094 57.367188 Z M 43.746094 57.367188 " fill-opacity="1" fill-rule="evenodd"/><path fill="#697791" d="M 26.996094 51.019531 C 25.847656 53.386719 23.503906 59.425781 24.007812 61.554688 C 24.484375 58.304688 26.242188 54.289062 27.574219 52.296875 C 27.371094 51.871094 27.175781 51.449219 26.996094 51.019531 Z M 26.996094 51.019531 " fill-opacity="1" fill-rule="evenodd"/><path fill="#697791" d="M 51.085938 53.910156 C 51.261719 52.496094 51.253906 51.152344 51.019531 50.121094 C 50.667969 48.558594 48.894531 48.050781 47.230469 48.132812 L 47.421875 47.21875 L 41.761719 48.792969 C 48.371094 48.539062 50.433594 47.71875 51.085938 53.910156 Z M 51.085938 53.910156 " fill-opacity="1" fill-rule="evenodd"/><path fill="#263042" d="M 24.75 62.394531 C 26.136719 62.753906 28.734375 60.347656 29.410156 59.785156 C 30.070312 59.234375 30.695312 58.730469 31.289062 58.285156 L 30.449219 57.050781 C 28.324219 58.921875 27.160156 61.5625 24.75 62.394531 Z M 36.351562 55.292969 C 38.546875 54.460938 40.6875 54.367188 43.441406 54.53125 C 42.644531 52.898438 37.570312 53.722656 36.0625 54.308594 Z M 36.351562 55.292969 " fill-opacity="1" fill-rule="evenodd"/><path fill="#697791" d="M 27.785156 38.308594 C 25.921875 41.226562 24.972656 45.433594 27.269531 50.476562 L 29.003906 55.007812 L 30.527344 56.605469 C 26.058594 47.097656 26.007812 43.023438 28.738281 37.523438 L 28.476562 37.539062 C 28.195312 37.777344 27.960938 38.03125 27.785156 38.308594 Z M 27.785156 38.308594 " fill-opacity="1" fill-rule="evenodd"/><path fill="#263042" d="M 31.636719 58.023438 C 33.367188 59.988281 34.78125 60.222656 35.558594 59.761719 C 36.574219 59.160156 36.519531 57.679688 36.109375 55.386719 C 35.46875 53.363281 34.773438 50.578125 34.578125 49.957031 C 34.628906 47.414062 34.683594 44.867188 34.730469 42.328125 L 32.242188 40.464844 C 29.535156 44.277344 33.515625 52.550781 34.894531 55.621094 C 35.429688 56.816406 35.441406 57.953125 34.789062 58.398438 C 34.132812 58.84375 32.199219 58.4375 30.527344 56.613281 C 30.882812 57.128906 31.027344 57.394531 31.636719 58.023438 Z M 31.636719 58.023438 " fill-opacity="1" fill-rule="evenodd"/><path fill="#263042" d="M 47.695312 46.089844 C 48.386719 43.539062 49.410156 41.355469 50.652344 39.234375 C 50.59375 35.585938 39.15625 34.207031 32.34375 35.84375 C 32.726562 36.6875 32.992188 37.769531 33.054688 39.171875 L 34.152344 47.613281 C 36.726562 44.664062 43.59375 44.113281 47.695312 46.089844 Z M 47.695312 46.089844 " fill-opacity="1" fill-rule="evenodd"/><path fill="#1c1d29" d="M 30.925781 37.035156 C 30.640625 37.140625 30.375 37.253906 30.128906 37.371094 C 29.949219 37.457031 29.78125 37.546875 29.625 37.636719 C 30.40625 39.121094 31.328125 40.515625 32.363281 41.828125 C 33.429688 43.1875 34.628906 44.464844 35.925781 45.6875 C 36.179688 45.542969 36.449219 45.386719 36.734375 45.222656 L 37.121094 44.992188 C 35.867188 43.832031 34.730469 42.621094 33.722656 41.347656 C 32.652344 39.988281 31.71875 38.554688 30.925781 37.035156 Z M 29.492188 36.03125 C 29.972656 35.804688 30.503906 35.601562 31.074219 35.421875 C 31.414062 35.3125 31.789062 35.472656 31.957031 35.800781 C 32.761719 37.4375 33.738281 38.976562 34.878906 40.421875 C 36.03125 41.878906 37.351562 43.246094 38.832031 44.539062 C 38.886719 44.582031 38.929688 44.636719 38.972656 44.699219 C 39.1875 45.042969 39.089844 45.5 38.746094 45.722656 C 38.292969 46.011719 37.875 46.273438 37.480469 46.5 C 37.105469 46.722656 36.679688 46.960938 36.207031 47.214844 C 35.933594 47.386719 35.570312 47.363281 35.320312 47.132812 C 33.828125 45.765625 32.445312 44.308594 31.214844 42.742188 C 29.992188 41.191406 28.921875 39.542969 28.035156 37.765625 C 27.84375 37.445312 27.917969 37.023438 28.226562 36.792969 C 28.589844 36.511719 29.015625 36.257812 29.492188 36.03125 Z M 29.492188 36.03125 " fill-opacity="1" fill-rule="nonzero"/><path fill="#961818" d="M 31.292969 36.128906 C 30.238281 36.457031 29.335938 36.878906 28.664062 37.382812 C 30.402344 40.878906 32.867188 43.890625 35.8125 46.585938 C 36.695312 46.113281 37.535156 45.617188 38.34375 45.097656 C 35.308594 42.445312 32.949219 39.503906 31.292969 36.128906 Z M 31.292969 36.128906 " fill-opacity="1" fill-rule="evenodd"/><path fill="#1c1d29" d="M 48.808594 37.832031 C 48.667969 37.746094 48.523438 37.660156 48.367188 37.578125 C 48.105469 37.445312 47.820312 37.316406 47.5 37.195312 C 46.09375 39.359375 44.40625 41.269531 42.445312 42.96875 C 40.445312 44.695312 38.160156 46.207031 35.585938 47.539062 C 35.601562 47.835938 35.628906 48.160156 35.660156 48.496094 C 35.671875 48.636719 35.6875 48.773438 35.703125 48.914062 C 38.378906 47.5625 40.847656 46.03125 43.039062 44.246094 C 45.28125 42.417969 47.230469 40.304688 48.808594 37.832031 Z M 49.039062 36.269531 C 49.5 36.507812 49.90625 36.769531 50.242188 37.054688 C 50.542969 37.28125 50.625 37.703125 50.433594 38.027344 C 48.703125 40.898438 46.511719 43.316406 43.964844 45.398438 C 41.449219 47.453125 38.585938 49.175781 35.46875 50.683594 C 35.398438 50.722656 35.316406 50.75 35.230469 50.769531 C 34.832031 50.832031 34.453125 50.5625 34.386719 50.160156 C 34.308594 49.683594 34.242188 49.15625 34.195312 48.644531 L 34.195312 48.640625 C 34.148438 48.105469 34.117188 47.589844 34.101562 47.160156 C 34.078125 46.871094 34.226562 46.582031 34.507812 46.441406 C 37.152344 45.101562 39.480469 43.59375 41.496094 41.851562 C 43.484375 40.132812 45.167969 38.183594 46.550781 35.964844 C 46.710938 35.648438 47.085938 35.484375 47.4375 35.601562 C 48.007812 35.792969 48.550781 36.015625 49.039062 36.269531 Z M 49.039062 36.269531 " fill-opacity="1" fill-rule="nonzero"/><path fill="#d62727" d="M 49.796875 37.640625 C 49.191406 37.113281 48.289062 36.664062 47.199219 36.300781 C 44.347656 40.917969 40.226562 44.371094 34.835938 47.097656 C 34.855469 47.902344 34.953125 49.066406 35.109375 50.03125 C 41.261719 47.0625 46.429688 43.242188 49.796875 37.640625 Z M 49.796875 37.640625 " fill-opacity="1" fill-rule="evenodd"/><path fill="#961818" d="M 49.75 37.601562 C 49.71875 37.574219 49.6875 37.546875 49.648438 37.519531 L 49.617188 37.496094 L 49.585938 37.476562 C 49.546875 37.445312 49.5 37.410156 49.460938 37.378906 L 49.429688 37.359375 L 49.421875 37.347656 C 49.367188 37.3125 49.3125 37.277344 49.257812 37.238281 L 49.222656 37.21875 C 48.78125 36.9375 48.25 36.683594 47.652344 36.460938 L 47.601562 36.445312 C 47.519531 36.414062 47.4375 36.386719 47.355469 36.355469 L 47.304688 36.335938 L 47.203125 36.300781 C 44.867188 40.085938 41.675781 43.085938 37.632812 45.546875 C 39.359375 45.007812 41.378906 44.8125 43.3125 44.976562 C 45.871094 42.902344 48.078125 40.5 49.804688 37.640625 Z M 49.75 37.601562 " fill-opacity="1" fill-rule="evenodd"/><path fill="#1c1d29" d="M 26.492188 50.289062 C 26.425781 50.121094 26.503906 49.933594 26.671875 49.871094 C 26.839844 49.800781 27.027344 49.882812 27.089844 50.050781 C 27.980469 52.300781 28.898438 54.105469 29.796875 55.53125 C 30.96875 57.402344 32.097656 58.601562 33.070312 59.273438 C 33.980469 59.898438 34.726562 60.050781 35.21875 59.855469 C 35.273438 59.832031 35.320312 59.804688 35.371094 59.777344 C 37.003906 58.742188 36.039062 55.6875 34.976562 52.355469 C 34.730469 51.59375 34.484375 50.820312 34.265625 50.050781 C 34.101562 49.480469 33.980469 48.621094 33.925781 47.808594 C 33.871094 46.980469 33.882812 46.183594 33.980469 45.761719 C 34.019531 45.585938 34.195312 45.484375 34.371094 45.523438 C 34.546875 45.566406 34.652344 45.742188 34.609375 45.917969 C 34.523438 46.273438 34.519531 47 34.570312 47.765625 C 34.625 48.542969 34.730469 49.355469 34.886719 49.871094 C 35.105469 50.636719 35.347656 51.40625 35.589844 52.15625 C 36.730469 55.738281 37.773438 59.023438 35.71875 60.324219 C 35.636719 60.375 35.550781 60.417969 35.457031 60.457031 C 34.773438 60.730469 33.808594 60.566406 32.707031 59.808594 C 31.667969 59.09375 30.476562 57.828125 29.246094 55.875 C 28.335938 54.421875 27.402344 52.582031 26.492188 50.289062 Z M 26.492188 50.289062 " fill-opacity="1" fill-rule="nonzero"/><path fill="#1c1d29" d="M 47.238281 48.125 C 43.511719 48.363281 38.246094 49.160156 34.976562 50.972656 L 34.621094 49.023438 C 38.191406 47.164062 43.078125 46.429688 47.859375 46.074219 Z M 47.238281 48.125 " fill-opacity="1" fill-rule="evenodd"/><path fill="#1c1d29" d="M 54.117188 16.652344 C 55.378906 18.183594 56.265625 23.429688 56.148438 28.53125 C 56.054688 32.636719 55.324219 36.714844 53.640625 38.808594 C 53.613281 38.839844 53.585938 38.867188 53.5625 38.894531 C 50.988281 41.457031 44.832031 42.820312 38.691406 42.917969 C 32.535156 43.019531 26.316406 41.851562 23.675781 39.355469 C 23.644531 39.328125 23.621094 39.296875 23.59375 39.269531 C 21.863281 37.222656 21.007812 33.1875 20.78125 29.109375 C 20.503906 24.011719 21.21875 18.742188 22.429688 17.171875 C 22.445312 17.148438 22.464844 17.125 22.484375 17.109375 L 22.527344 17.0625 C 25.597656 13.910156 31.898438 12.257812 38.191406 12.15625 C 44.496094 12.054688 50.859375 13.507812 54.023438 16.570312 L 54.050781 16.597656 C 54.078125 16.613281 54.101562 16.632812 54.117188 16.652344 Z M 54.621094 28.503906 C 54.730469 23.75 54.007812 18.976562 52.957031 17.65625 C 50.089844 14.894531 44.160156 13.585938 38.222656 13.679688 C 32.285156 13.777344 26.394531 15.277344 23.621094 18.136719 C 22.617188 19.496094 22.050781 24.28125 22.3125 29.023438 C 22.519531 32.808594 23.265625 36.5 24.75 38.261719 C 27.109375 40.460938 32.878906 41.480469 38.667969 41.386719 C 44.457031 41.292969 50.191406 40.085938 52.476562 37.8125 C 53.90625 36.003906 54.539062 32.292969 54.621094 28.503906 Z M 54.621094 28.503906 " fill-opacity="1" fill-rule="nonzero"/><path fill="#384357" d="M 53.527344 17.144531 C 55.617188 19.683594 56.566406 33.953125 53.042969 38.335938 C 48.214844 43.199219 29.179688 43.507812 24.199219 38.800781 C 20.535156 34.535156 21.027344 20.242188 23.035156 17.636719 C 28.851562 11.574219 47.527344 11.277344 53.527344 17.144531 Z M 53.527344 17.144531 " fill-opacity="1" fill-rule="evenodd"/><path fill="#697791" d="M 38.679688 42.15625 C 32.695312 42.25 26.691406 41.152344 24.199219 38.796875 C 20.535156 34.53125 21.027344 20.238281 23.035156 17.632812 C 26.007812 14.535156 32.339844 12.945312 38.621094 12.90625 C 34.144531 13.472656 29.773438 14.824219 26.261719 16.828125 C 24.542969 17.804688 24.082031 18.035156 23.554688 20.03125 C 22.136719 25.386719 22.621094 31.175781 24.058594 35.753906 C 24.691406 37.777344 24.875 38.347656 26.730469 39.257812 C 30.105469 40.917969 34.136719 41.667969 38.679688 42.15625 Z M 38.679688 42.15625 " fill-opacity="1" fill-rule="evenodd"/><path fill="#263042" d="M 53.527344 17.144531 C 55.617188 19.683594 56.566406 33.953125 53.042969 38.335938 C 52.097656 39.289062 50.605469 40.066406 48.777344 40.667969 C 54.230469 33.628906 54.589844 19.800781 45.074219 13.460938 C 48.601562 14.101562 51.671875 15.328125 53.527344 17.144531 Z M 53.527344 17.144531 " fill-opacity="1" fill-rule="evenodd"/><path fill="#1c1d29" d="M 56.070312 25.660156 C 55.382812 30.042969 52.296875 33.179688 48.207031 35.050781 C 45.328125 36.367188 41.953125 37.054688 38.574219 37.109375 C 35.191406 37.164062 31.796875 36.585938 28.886719 35.363281 C 24.738281 33.628906 21.550781 30.589844 20.722656 26.230469 C 20.660156 25.890625 20.878906 25.558594 21.21875 25.492188 C 21.328125 25.46875 21.433594 25.480469 21.535156 25.515625 C 27.792969 27.128906 33.121094 27.902344 38.425781 27.816406 C 43.746094 27.730469 49.054688 26.78125 55.28125 24.957031 C 55.613281 24.863281 55.953125 25.054688 56.054688 25.386719 C 56.082031 25.480469 56.085938 25.570312 56.070312 25.660156 Z M 47.6875 33.90625 C 51.09375 32.347656 53.730469 29.855469 54.632812 26.449219 C 48.726562 28.121094 43.597656 28.988281 38.449219 29.070312 C 33.300781 29.152344 28.148438 28.449219 22.191406 26.976562 C 23.199219 30.347656 25.910156 32.757812 29.367188 34.207031 C 32.121094 35.359375 35.34375 35.90625 38.558594 35.855469 C 41.773438 35.800781 44.972656 35.152344 47.6875 33.90625 Z M 47.6875 33.90625 " fill-opacity="1" fill-rule="nonzero"/><path fill="#263042" d="M 55.457031 25.558594 C 53.214844 39.789062 24.035156 40.265625 21.339844 26.113281 C 34.003906 29.382812 42.90625 29.242188 55.457031 25.558594 Z M 55.457031 25.558594 " fill-opacity="1" fill-rule="evenodd"/><path fill="#facf89" d="M 50.703125 32.898438 C 44.246094 37.515625 32.925781 37.703125 26.332031 33.292969 C 25.136719 31.917969 24.277344 29.382812 25.097656 27.007812 C 36.515625 28.933594 39.773438 29.398438 51.386719 27.03125 C 51.996094 28.851562 51.144531 31.996094 50.703125 32.898438 Z M 50.703125 32.898438 " fill-opacity="1" fill-rule="evenodd"/><path fill="#f5986a" d="M 24.828125 29.824219 C 24.707031 28.914062 24.769531 27.949219 25.09375 27.003906 C 36.507812 28.929688 39.769531 29.394531 51.382812 27.023438 C 51.660156 27.847656 51.640625 28.941406 51.492188 29.976562 C 42 32.238281 33.109375 32.214844 24.828125 29.824219 Z M 24.828125 29.824219 " fill-opacity="1" fill-rule="evenodd"/><path fill="#1c1d29" d="M 55.476562 22.988281 C 55.617188 23.609375 55.738281 24.28125 55.835938 24.984375 C 55.941406 25.703125 56.027344 26.464844 56.089844 27.242188 C 56.113281 27.550781 55.910156 27.824219 55.621094 27.902344 C 49.40625 29.761719 43.425781 30.6875 37.6875 30.65625 C 31.933594 30.625 26.429688 29.632812 21.175781 27.652344 C 20.914062 27.554688 20.753906 27.292969 20.773438 27.023438 C 20.800781 26.605469 20.835938 26.1875 20.878906 25.773438 C 20.925781 25.355469 20.972656 24.957031 21.023438 24.59375 C 21.074219 24.25 21.390625 24.007812 21.730469 24.058594 L 21.734375 24.058594 C 26.960938 24.835938 32.257812 25.316406 37.71875 25.167969 C 43.179688 25.015625 48.808594 24.238281 54.699219 22.511719 C 55.03125 22.417969 55.375 22.605469 55.472656 22.941406 Z M 54.601562 25.164062 C 54.539062 24.71875 54.464844 24.292969 54.394531 23.894531 C 48.628906 25.527344 43.105469 26.265625 37.746094 26.414062 C 32.410156 26.5625 27.25 26.121094 22.175781 25.386719 C 22.152344 25.554688 22.136719 25.726562 22.117188 25.894531 C 22.089844 26.132812 22.070312 26.382812 22.050781 26.636719 C 27.03125 28.453125 32.246094 29.367188 37.6875 29.394531 C 43.152344 29.425781 48.859375 28.5625 54.792969 26.832031 C 54.738281 26.257812 54.675781 25.695312 54.601562 25.164062 Z M 54.601562 25.164062 " fill-opacity="1" fill-rule="nonzero"/><path fill="#1c1d29" d="M 54.867188 23.109375 C 55.132812 24.308594 55.339844 25.746094 55.464844 27.292969 C 43.128906 30.980469 31.753906 30.96875 21.394531 27.066406 C 21.453125 26.226562 21.535156 25.417969 21.640625 24.679688 C 32.136719 26.246094 42.972656 26.601562 54.867188 23.109375 Z M 54.867188 23.109375 " fill-opacity="1" fill-rule="evenodd"/><path fill="#1c1d29" d="M 32.164062 29.234375 C 33.523438 29.214844 34.640625 30.578125 34.667969 32.289062 C 34.695312 33.996094 33.621094 35.394531 32.261719 35.417969 C 30.902344 35.441406 29.78125 34.074219 29.753906 32.367188 C 29.726562 30.660156 30.808594 29.257812 32.164062 29.234375 Z M 32.164062 29.234375 " fill-opacity="1" fill-rule="evenodd"/><path fill="#ffffff" d="M 32.855469 30.722656 C 33.375 30.714844 33.800781 31.238281 33.8125 31.890625 C 33.824219 32.542969 33.414062 33.078125 32.894531 33.085938 C 32.378906 33.09375 31.949219 32.570312 31.9375 31.917969 C 31.929688 31.265625 32.339844 30.734375 32.855469 30.722656 Z M 32.855469 30.722656 " fill-opacity="1" fill-rule="evenodd"/><path fill="#1c1d29" d="M 44.21875 29.234375 C 42.859375 29.214844 41.738281 30.578125 41.710938 32.289062 C 41.683594 33.996094 42.761719 35.394531 44.121094 35.417969 C 45.472656 35.441406 46.597656 34.074219 46.625 32.367188 C 46.652344 30.660156 45.578125 29.257812 44.21875 29.234375 Z M 44.21875 29.234375 " fill-opacity="1" fill-rule="evenodd"/><path fill="#ffffff" d="M 43.523438 30.722656 C 43.007812 30.714844 42.582031 31.238281 42.566406 31.890625 C 42.558594 32.542969 42.96875 33.078125 43.484375 33.085938 C 44.003906 33.09375 44.429688 32.570312 44.445312 31.917969 C 44.457031 31.265625 44.042969 30.734375 43.523438 30.722656 Z M 43.523438 30.722656 " fill-opacity="1" fill-rule="evenodd"/><path fill="#263042" d="M 56.324219 58.746094 C 56.304688 59.039062 56.5 59.292969 56.765625 59.316406 C 57.027344 59.339844 57.253906 59.121094 57.273438 58.828125 C 57.386719 57.195312 57.472656 55.542969 57.523438 53.863281 C 57.578125 52.179688 57.53125 48.445312 57.507812 46.734375 C 57.503906 46.441406 57.285156 46.207031 57.027344 46.210938 C 56.765625 46.214844 56.554688 46.457031 56.558594 46.746094 C 56.574219 48.453125 56.628906 52.171875 56.574219 53.820312 C 56.523438 55.472656 56.433594 57.113281 56.324219 58.746094 Z M 56.324219 58.746094 " fill-opacity="1" fill-rule="nonzero"/><path fill="#263042" d="M 54.203125 56.960938 C 54.195312 57.253906 54.398438 57.496094 54.660156 57.511719 C 54.917969 57.523438 55.144531 57.300781 55.152344 57.003906 C 55.191406 56.050781 55.214844 55.09375 55.230469 54.125 C 55.242188 53.144531 55.25 52.167969 55.234375 51.195312 C 55.230469 50.902344 55.015625 50.664062 54.753906 50.667969 C 54.492188 50.675781 54.28125 50.914062 54.285156 51.203125 C 54.296875 52.1875 54.292969 53.152344 54.28125 54.097656 C 54.265625 55.0625 54.246094 56.015625 54.203125 56.960938 Z M 54.203125 56.960938 " fill-opacity="1" fill-rule="nonzero"/><path fill="#263042" d="M 58.40625 56.332031 C 58.398438 56.625 58.601562 56.871094 58.863281 56.882812 C 59.121094 56.894531 59.347656 56.671875 59.355469 56.375 C 59.394531 55.421875 59.417969 54.464844 59.433594 53.496094 C 59.445312 52.515625 59.453125 51.539062 59.4375 50.566406 C 59.433594 50.273438 59.21875 50.035156 58.957031 50.042969 C 58.695312 50.046875 58.484375 50.285156 58.488281 50.574219 C 58.5 51.5625 58.496094 52.523438 58.484375 53.46875 C 58.46875 54.4375 58.441406 55.390625 58.40625 56.332031 Z M 58.40625 56.332031 " fill-opacity="1" fill-rule="nonzero"/><path fill="#263042" d="M 19.171875 37.679688 C 19.152344 37.382812 19.347656 37.140625 19.601562 37.125 C 19.855469 37.113281 20.074219 37.339844 20.089844 37.632812 C 20.136719 38.578125 20.203125 39.527344 20.273438 40.480469 C 20.34375 41.425781 20.429688 42.386719 20.53125 43.367188 C 20.5625 43.65625 20.375 43.917969 20.125 43.945312 C 19.871094 43.972656 19.644531 43.765625 19.613281 43.472656 C 19.511719 42.503906 19.425781 41.53125 19.351562 40.554688 C 19.28125 39.589844 19.21875 38.632812 19.171875 37.679688 Z M 16.964844 31.949219 C 16.957031 31.65625 17.160156 31.414062 17.410156 31.410156 C 17.667969 31.40625 17.878906 31.640625 17.886719 31.929688 C 17.929688 33.566406 17.996094 35.210938 18.09375 36.855469 C 18.195312 38.507812 18.324219 40.175781 18.5 41.875 C 18.53125 42.164062 18.347656 42.425781 18.09375 42.453125 C 17.84375 42.484375 17.613281 42.273438 17.582031 41.980469 C 17.40625 40.277344 17.277344 38.585938 17.175781 36.910156 C 17.074219 35.238281 17.007812 33.582031 16.964844 31.949219 Z M 16.964844 31.949219 " fill-opacity="1" fill-rule="nonzero"/><path fill="#697791" d="M 49.039062 49.039062 C 49.714844 49.285156 50.257812 49.824219 50.257812 50.242188 C 50.257812 50.65625 49.714844 50.792969 49.039062 50.542969 C 48.363281 50.292969 47.820312 49.757812 47.820312 49.339844 C 47.820312 48.925781 48.363281 48.789062 49.039062 49.039062 Z M 49.039062 49.039062 " fill-opacity="1" fill-rule="evenodd"/><path fill="#697791" d="M 47.851562 50.78125 C 48.269531 50.9375 48.609375 51.269531 48.609375 51.535156 C 48.609375 51.792969 48.269531 51.878906 47.851562 51.722656 C 47.429688 51.570312 47.089844 51.234375 47.089844 50.972656 C 47.085938 50.710938 47.425781 50.625 47.851562 50.78125 Z M 47.851562 50.78125 " fill-opacity="1" fill-rule="evenodd"/><path fill="#697791" d="M 29.15625 15.222656 C 30.289062 14.609375 31.664062 14.507812 32.222656 15.007812 C 32.777344 15.503906 32.304688 16.402344 31.171875 17.019531 C 30.039062 17.632812 28.664062 17.734375 28.109375 17.234375 C 27.550781 16.742188 28.019531 15.84375 29.15625 15.222656 Z M 29.15625 15.222656 " fill-opacity="1" fill-rule="evenodd"/><path fill="#697791" d="M 32.429688 17.476562 C 33.097656 17.113281 33.910156 17.054688 34.238281 17.347656 C 34.566406 17.640625 34.285156 18.171875 33.617188 18.53125 C 32.945312 18.894531 32.136719 18.953125 31.808594 18.660156 C 31.484375 18.371094 31.761719 17.839844 32.429688 17.476562 Z M 32.429688 17.476562 " fill-opacity="1" fill-rule="evenodd"/></svg>